<?xml version="1.0" standalone="no"?>
<!DOCTYPE svg PUBLIC "-//W3C//DTD SVG 20010904//EN"
 "http://www.w3.org/TR/2001/REC-SVG-20010904/DTD/svg10.dtd">
<svg version="1.0" xmlns="http://www.w3.org/2000/svg"
 width="815.000000pt" height="815.000000pt" viewBox="0 0 815.000000 815.000000"
 preserveAspectRatio="xMidYMid meet">
<metadata>
Created by potrace 1.14, written by Peter Selinger 2001-2017
</metadata>
<g transform="translate(0.000000,815.000000) scale(0.100000,-0.100000)"
fill="#000000" stroke="none">
<path d="M5907 7441 c-39 -23 -59 -94 -44 -165 4 -22 36 -48 48 -40 5 3 9 1 9
-4 0 -5 31 -9 70 -9 62 0 72 3 85 23 8 13 15 35 15 49 0 18 4 24 13 19 9 -6 9
-5 -1 8 -6 8 -14 28 -16 44 -7 53 -18 74 -40 75 -11 1 -37 2 -56 3 -19 1 -39
4 -45 7 -5 3 -22 -1 -38 -10z"/>
<path d="M5647 7100 c-9 -9 -19 -31 -22 -50 -3 -18 -8 -37 -11 -42 -3 -4 1 -8
8 -8 8 0 9 -3 3 -8 -12 -8 -14 -63 -3 -56 4 3 8 -2 8 -11 0 -33 23 -42 108
-42 71 0 82 3 88 19 3 10 9 18 13 18 5 0 8 38 7 85 -1 69 -4 88 -20 102 -10
10 -15 12 -11 4 6 -10 4 -12 -6 -5 -25 15 -144 11 -162 -6z"/>
<path d="M6150 7068 c0 -4 -6 -8 -14 -8 -23 0 -48 -41 -34 -57 6 -7 8 -13 6
-13 -3 0 -2 -18 2 -40 4 -22 4 -42 1 -46 -3 -3 -7 -18 -7 -32 -1 -15 -5 -35
-9 -45 -4 -9 -4 -32 -1 -51 10 -51 48 -61 201 -54 28 2 65 0 83 -3 17 -4 32
-3 32 1 0 4 11 5 24 3 28 -6 71 31 62 53 -3 8 -2 14 2 14 9 0 7 40 -6 91 -8
32 -9 94 -2 124 6 24 -2 41 -27 59 -14 11 -23 14 -19 8 8 -13 -6 -16 -18 -4
-10 10 -276 10 -276 0z"/>
<path d="M795 6703 c6 -4 12 -19 13 -33 2 -14 8 -26 13 -28 5 -2 9 -9 9 -16 0
-16 44 -106 75 -156 13 -21 21 -41 18 -44 -4 -3 -1 -6 5 -6 7 0 12 -6 12 -13
0 -8 9 -22 20 -32 11 -10 17 -22 14 -26 -3 -5 0 -9 5 -9 6 0 11 -7 11 -15 0
-8 4 -15 8 -15 4 0 14 -20 21 -45 7 -25 17 -45 22 -45 5 0 9 -7 9 -16 0 -41
88 -164 117 -164 7 0 13 -4 13 -9 0 -5 29 -9 65 -10 36 0 70 -3 75 -6 5 -3 11
-2 13 2 3 5 52 7 109 6 159 -3 912 -5 923 -3 6 1 13 1 18 0 12 -4 26 -7 37 -9
6 0 10 -10 10 -20 0 -10 7 -22 16 -25 8 -3 12 -10 9 -16 -3 -5 -2 -10 2 -10 5
0 20 -21 33 -47 14 -27 27 -50 30 -53 14 -14 39 -60 33 -60 -5 0 -3 -4 2 -8 6
-4 17 -20 26 -37 61 -112 83 -152 92 -162 5 -7 6 -13 1 -13 -5 0 -4 -4 2 -8 6
-4 21 -29 35 -57 13 -27 26 -52 30 -55 8 -7 40 -79 39 -86 -1 -4 3 -10 8 -13
5 -3 28 -41 50 -84 22 -43 45 -83 50 -90 6 -7 11 -16 13 -22 9 -37 12 -45 19
-45 5 0 13 -12 19 -27 5 -16 26 -57 46 -93 20 -36 44 -78 53 -95 10 -16 19
-32 22 -35 3 -3 12 -18 20 -35 8 -16 17 -32 20 -35 9 -9 30 -45 41 -70 5 -13
13 -27 17 -30 12 -8 97 -184 94 -193 -1 -5 2 -6 8 -2 5 3 10 1 10 -5 0 -12 39
-71 55 -82 6 -4 6 -8 1 -8 -5 0 -3 -8 5 -17 21 -26 61 -103 54 -103 -4 0 1 -7
9 -16 9 -8 16 -22 16 -30 0 -8 5 -14 11 -14 6 0 9 -7 5 -15 -3 -8 -2 -15 2
-15 4 0 26 -35 47 -77 22 -43 46 -84 53 -91 7 -8 10 -18 7 -23 -4 -5 -2 -9 4
-9 5 0 17 -18 27 -40 10 -22 22 -40 27 -40 4 0 5 -4 2 -10 -3 -5 -1 -10 4 -10
6 0 11 -5 11 -11 0 -6 14 -30 30 -55 17 -24 27 -44 23 -44 -4 0 0 -5 10 -11 9
-5 17 -17 17 -24 0 -8 3 -15 8 -15 4 0 16 -19 26 -43 11 -23 27 -51 35 -61 9
-11 11 -16 3 -12 -7 4 -2 -8 10 -26 13 -19 41 -70 63 -113 22 -44 43 -82 48
-83 4 -2 5 -8 1 -13 -3 -5 -1 -9 4 -9 5 0 15 -13 22 -29 6 -16 18 -32 26 -35
8 -3 14 -11 14 -18 0 -8 14 -28 30 -46 17 -18 30 -37 30 -43 0 -5 7 -9 16 -9
8 0 12 -4 9 -10 -3 -5 0 -10 7 -10 13 0 58 62 58 80 0 5 5 10 12 10 6 0 8 3 5
6 -4 4 2 19 12 33 10 14 22 36 25 49 4 12 12 22 17 22 5 0 9 7 9 15 0 8 4 15
10 15 5 0 10 3 9 8 -2 13 13 52 20 52 4 0 13 16 20 35 7 19 17 35 22 35 5 0 9
6 9 13 0 6 13 27 29 46 17 19 28 38 25 43 -3 4 0 8 6 8 6 0 8 5 5 10 -3 6 -1
10 4 10 12 0 54 84 54 106 0 8 3 14 7 14 8 0 6 18 -5 73 -4 20 -10 37 -14 37
-3 0 -15 17 -26 38 -11 20 -25 43 -32 49 -6 7 -17 26 -25 43 -7 16 -16 30 -20
30 -5 0 -8 9 -8 20 0 11 -5 20 -11 20 -5 0 -8 4 -5 8 3 5 -6 25 -20 45 -13 20
-25 40 -26 44 0 5 -11 24 -23 43 -12 19 -34 58 -49 85 -15 28 -32 54 -37 59
-5 6 -9 18 -9 27 0 10 -4 19 -8 21 -12 4 -83 128 -74 128 4 0 -1 5 -10 11 -10
5 -18 15 -18 21 0 5 -11 24 -25 40 -14 16 -23 34 -19 39 3 5 1 9 -5 9 -11 0
-47 60 -43 73 1 4 -5 7 -14 7 -8 0 -13 4 -10 9 3 5 -2 19 -12 32 -18 23 -35
60 -32 68 1 2 -2 7 -8 10 -5 3 -26 40 -48 81 -21 41 -42 77 -46 78 -5 2 -8 12
-8 23 0 10 -3 19 -8 19 -8 0 -35 57 -30 65 2 4 -5 11 -15 16 -9 6 -15 14 -12
20 4 5 1 9 -5 9 -6 0 -9 4 -6 9 3 5 -1 14 -9 21 -8 7 -15 21 -15 31 0 11 -5
19 -11 19 -5 0 -8 4 -5 9 3 5 0 14 -8 20 -8 7 -17 23 -20 36 -4 14 -11 25 -17
25 -6 0 -8 4 -4 9 3 5 -1 15 -8 23 -7 7 -21 29 -31 48 -35 67 -57 105 -82 145
-14 22 -27 48 -31 58 -3 9 -10 17 -15 17 -5 0 -6 5 -3 10 3 6 1 10 -6 10 -7 0
-9 3 -6 7 4 3 0 15 -10 25 -9 10 -13 18 -9 18 3 0 -5 17 -18 38 -14 20 -26 44
-28 52 -2 8 -8 19 -15 25 -11 10 -66 111 -70 130 -1 5 -4 20 -7 32 -3 13 -1
25 3 28 5 2 843 5 1862 5 1443 0 1856 3 1868 13 12 10 13 9 7 -3 -4 -9 -2 -8
7 2 8 10 16 15 19 12 3 -3 12 9 19 25 8 17 17 31 20 31 4 0 10 12 14 27 3 15
15 39 26 55 11 15 17 28 13 28 -4 0 3 9 15 19 12 11 21 21 19 23 -1 2 10 19
25 39 15 20 27 41 27 47 0 7 5 12 11 12 5 0 7 5 4 10 -3 6 -2 10 3 10 9 0 20
27 18 40 -1 3 9 20 22 38 13 17 20 32 17 32 -3 0 2 12 13 28 23 34 52 90 59
117 17 68 38 61 -199 60 -117 0 -223 3 -235 7 -14 5 -23 3 -23 -3 0 -6 -6 -6
-19 0 -10 6 -21 8 -24 5 -8 -8 -127 -13 -127 -6 0 7 -106 8 -122 2 -5 -1 -12
-3 -17 -4 -6 0 -16 -7 -23 -15 -11 -12 -10 -13 2 -7 10 5 9 3 -2 -7 -13 -10
-15 -16 -6 -25 9 -9 9 -12 1 -12 -7 0 -11 -9 -10 -20 1 -11 4 -20 7 -20 4 0 4
-22 0 -50 -4 -27 -4 -50 -1 -50 11 0 8 -75 -3 -82 -8 -6 -8 -8 1 -8 13 0 5
-39 -11 -55 -6 -6 -24 -8 -41 -5 -16 3 -43 3 -60 0 -16 -3 -49 -5 -72 -5 -24
1 -43 -2 -43 -7 0 -5 -4 -7 -9 -4 -4 3 -31 6 -60 7 -28 1 -51 6 -51 10 0 5 -7
6 -15 3 -15 -6 -37 12 -44 36 -5 16 -5 71 -1 183 1 42 -2 73 -10 82 -7 8 -9
15 -4 15 16 0 -31 29 -48 30 -9 0 -19 6 -21 13 -3 6 -6 8 -6 2 -1 -10 -5045
-11 -5136 -1 -22 2 -49 7 -60 11 -11 4 -16 3 -10 -2z"/>
<path d="M4117 5593 c-5 -4 -14 -8 -20 -8 -27 -1 -77 -17 -77 -25 0 -5 6 -15
13 -22 18 -19 54 -71 57 -83 4 -17 24 -60 30 -65 3 -3 24 -41 46 -85 21 -44
44 -83 49 -87 6 -4 6 -8 2 -8 -5 0 -1 -7 7 -16 9 -8 14 -20 11 -25 -4 -5 -2
-9 4 -9 5 0 19 -21 32 -47 12 -27 27 -51 33 -55 6 -4 7 -8 3 -8 -5 0 1 -12 12
-26 11 -15 18 -30 15 -35 -2 -5 4 -14 16 -21 11 -7 20 -20 20 -28 1 -8 12 -33
25 -55 14 -22 33 -57 42 -77 10 -21 21 -38 25 -38 5 0 8 -5 8 -10 0 -6 11 -28
24 -49 14 -21 22 -42 19 -45 -4 -3 -1 -6 5 -6 7 0 12 -7 12 -15 0 -8 5 -15 10
-15 6 0 10 -9 10 -20 0 -11 4 -20 9 -20 5 0 14 -13 20 -30 5 -16 15 -30 21
-30 6 0 9 -4 5 -9 -3 -5 -1 -12 5 -16 6 -4 8 -11 5 -16 -4 -5 -2 -9 3 -9 5 0
20 -21 33 -47 13 -27 27 -49 32 -51 4 -2 7 -10 7 -17 0 -7 7 -16 16 -19 8 -3
12 -2 9 4 -3 6 0 13 9 16 8 3 22 21 31 40 9 19 21 34 27 34 5 0 8 6 5 14 -3 8
1 20 8 26 8 7 12 16 9 21 -3 5 -1 9 4 9 8 0 21 27 26 53 0 4 6 11 12 15 9 6
58 90 108 187 6 12 16 23 21 25 6 3 9 8 8 13 -2 4 4 7 12 7 8 0 15 4 15 9 0 6
9 8 20 6 11 -2 20 0 20 5 0 4 98 8 218 7 234 -1 242 -3 242 -54 0 -16 -6 -35
-12 -42 -10 -11 -10 -12 -1 -7 7 4 4 -10 -7 -31 -17 -33 -41 -88 -45 -103 -1
-5 -8 -18 -45 -80 -11 -19 -25 -47 -31 -62 -6 -16 -14 -28 -18 -28 -4 0 -13
-16 -21 -35 -8 -19 -17 -35 -22 -35 -4 0 -8 -7 -8 -15 0 -8 -4 -15 -9 -15 -5
0 -14 -13 -21 -30 -7 -16 -16 -30 -21 -30 -5 0 -8 -3 -7 -7 3 -10 -53 -107
-64 -111 -4 -2 -8 -10 -8 -17 0 -8 -6 -20 -12 -27 -21 -23 -58 -96 -58 -114 0
-10 -3 -14 -7 -11 -5 6 -43 -61 -47 -83 -1 -3 -6 -12 -11 -20 -25 -41 -54
-100 -47 -100 4 0 2 -4 -4 -8 -6 -4 -33 -52 -60 -107 -27 -55 -52 -102 -56
-105 -4 -3 -14 -22 -23 -43 -8 -20 -20 -37 -26 -37 -5 0 -8 -4 -4 -10 3 -5 -3
-18 -14 -29 -11 -11 -17 -21 -15 -24 4 -4 -26 -55 -76 -127 -9 -14 -20 -35
-24 -47 -4 -12 -13 -24 -21 -27 -8 -3 -15 -10 -15 -17 0 -6 -10 -25 -22 -42
-13 -18 -22 -34 -20 -37 1 -3 -3 -12 -10 -21 -7 -8 -14 -22 -16 -30 -2 -8 -8
-16 -13 -17 -5 -2 -7 -8 -3 -13 3 -5 0 -9 -5 -9 -6 0 -10 -3 -9 -7 1 -9 -13
-46 -21 -53 -3 -3 -16 -25 -29 -50 -28 -55 -43 -80 -59 -98 -7 -7 -13 -19 -13
-27 0 -7 -7 -15 -15 -19 -8 -3 -15 -12 -15 -21 0 -8 -5 -15 -10 -15 -6 0 -9
-3 -8 -7 2 -8 -23 -65 -41 -93 -45 -71 -103 -176 -176 -315 -78 -150 -79 -150
-95 -167 -9 -8 -23 -14 -32 -12 -22 3 -67 36 -68 50 0 5 -8 19 -18 30 -11 11
-18 27 -16 36 1 9 -4 19 -12 22 -8 3 -14 15 -14 26 0 11 -4 20 -8 20 -5 0 -14
16 -22 35 -8 19 -17 35 -21 35 -3 0 -12 14 -19 30 -7 17 -16 30 -21 30 -5 0
-9 8 -9 18 0 9 -9 28 -20 42 -11 14 -20 33 -20 43 0 9 -4 17 -9 17 -8 0 -27
43 -29 64 0 5 -5 12 -10 15 -11 7 -61 86 -64 102 -2 6 -13 23 -25 37 -13 14
-23 33 -23 43 0 11 -7 19 -16 19 -8 0 -13 4 -10 9 3 5 -5 25 -19 45 -14 20
-25 39 -25 41 0 2 -13 26 -29 54 -16 27 -27 52 -24 55 4 3 2 6 -3 6 -6 0 -16
16 -23 35 -7 19 -17 35 -22 35 -6 0 -7 5 -4 10 3 6 1 10 -6 10 -7 0 -10 3 -6
6 3 3 -7 27 -22 52 -14 26 -38 68 -51 95 -14 26 -29 47 -33 47 -5 0 -6 4 -2 9
3 5 0 16 -7 23 -18 19 -48 69 -55 91 -3 9 -9 17 -14 17 -5 0 -9 7 -9 15 0 8
-3 15 -7 15 -10 0 -33 49 -33 68 0 7 -4 10 -10 7 -5 -3 -10 -1 -10 6 0 6 -16
43 -35 80 -19 38 -32 69 -29 69 3 0 -2 7 -10 16 -9 8 -14 20 -11 25 4 5 2 9
-3 9 -9 0 -28 42 -30 64 0 5 -4 12 -9 15 -14 9 -127 201 -143 241 -7 19 -27
54 -43 78 -16 24 -30 51 -31 60 -2 9 -8 18 -14 20 -7 2 -10 8 -6 13 3 5 1 9
-4 9 -6 0 -13 11 -16 25 -4 14 -11 25 -17 25 -6 0 -7 5 -4 10 3 6 1 10 -5 10
-6 0 -8 5 -5 10 3 6 2 10 -3 10 -5 0 -13 8 -16 18 -13 32 -31 62 -38 62 -5 0
-8 7 -8 15 0 8 -4 15 -8 15 -5 0 -14 16 -22 35 -8 19 -17 35 -22 35 -4 0 -8 7
-8 15 0 8 -4 15 -10 15 -5 0 -10 9 -10 20 0 11 -4 20 -8 20 -4 0 -19 25 -32
55 -13 30 -29 55 -34 55 -5 0 -6 3 -3 6 6 7 -113 244 -133 264 -3 3 -16 28
-30 55 -14 28 -28 52 -32 53 -5 2 -8 12 -8 22 0 10 -3 20 -7 22 -10 4 -47 80
-45 91 1 4 -3 7 -9 7 -5 0 -7 5 -4 10 3 6 3 10 -2 10 -9 0 -39 61 -35 73 1 4
-2 7 -7 7 -10 0 -23 30 -18 40 4 9 -117 129 -124 124 -4 -2 -10 0 -13 5 -7 11
-123 11 -152 0 -13 -4 -26 -3 -33 4 -6 6 -11 7 -11 1 0 -15 -72 -17 -81 -2 -6
9 -9 10 -9 1 0 -7 -9 -10 -23 -7 -90 21 -322 23 -342 2 -3 -3 12 -34 34 -68
23 -35 41 -69 41 -77 0 -8 5 -11 10 -8 6 4 10 -5 10 -19 0 -14 5 -26 10 -26 6
0 10 -7 10 -15 0 -8 5 -15 11 -15 5 0 8 -4 5 -9 -4 -5 -3 -11 1 -13 5 -1 22
-31 39 -65 18 -34 35 -59 38 -56 3 4 6 -2 6 -11 0 -10 9 -29 20 -43 11 -14 17
-29 14 -34 -3 -5 -2 -9 3 -9 4 0 22 -26 38 -58 17 -31 32 -59 35 -62 5 -5 35
-58 72 -130 13 -25 26 -47 29 -50 8 -7 22 -44 21 -52 -1 -5 2 -8 8 -8 6 0 9
-3 8 -7 -1 -5 5 -20 15 -35 9 -16 25 -40 34 -55 31 -49 41 -71 35 -77 -3 -3 0
-6 7 -6 7 0 9 -4 6 -10 -3 -5 -2 -10 3 -10 5 0 15 -18 22 -40 7 -22 17 -40 22
-40 5 0 7 -4 4 -9 -3 -5 1 -11 9 -15 8 -3 15 -12 15 -21 0 -8 3 -15 8 -15 4 0
20 -27 37 -60 16 -33 33 -60 38 -60 5 0 7 -7 3 -15 -3 -8 -1 -15 4 -15 6 0 10
-7 10 -15 0 -8 4 -15 9 -15 10 0 27 -39 23 -52 -1 -5 5 -8 13 -8 8 0 15 -7 15
-15 0 -23 2 -28 22 -49 9 -10 15 -23 12 -27 -2 -4 0 -10 6 -14 6 -4 8 -11 5
-16 -4 -5 -2 -9 3 -9 6 0 13 -11 16 -25 4 -14 11 -25 16 -25 6 0 10 -7 10 -15
0 -16 37 -74 55 -87 6 -4 7 -8 2 -8 -9 0 93 -202 108 -212 5 -4 6 -8 1 -8 -5
0 -4 -6 2 -12 6 -7 24 -40 41 -73 17 -33 31 -55 31 -50 0 6 14 -17 31 -50 18
-33 37 -63 43 -67 6 -4 7 -8 3 -8 -5 0 -2 -7 5 -15 33 -36 39 -46 33 -54 -3
-5 -1 -11 3 -13 11 -4 92 -143 92 -157 0 -6 5 -11 12 -11 6 0 9 -3 5 -6 -3 -3
3 -15 13 -27 11 -11 17 -24 14 -29 -3 -4 0 -8 5 -8 6 0 11 -10 11 -22 0 -12 3
-18 6 -15 4 4 29 -37 56 -91 27 -53 58 -110 67 -127 10 -16 16 -33 14 -37 -2
-5 0 -8 6 -8 5 0 15 -16 22 -35 7 -19 17 -35 21 -35 4 0 7 -3 6 -7 -1 -5 5
-22 15 -39 9 -17 13 -34 10 -37 -3 -4 2 -9 11 -13 9 -3 16 -14 16 -24 0 -10 6
-23 13 -29 8 -6 20 -29 27 -51 7 -22 17 -40 22 -40 4 0 8 -7 8 -15 0 -8 4 -15
8 -15 10 0 58 -82 54 -93 -1 -4 2 -7 6 -7 8 0 36 -51 32 -59 -1 -2 2 -7 7 -10
14 -10 45 -71 36 -71 -4 0 -3 -4 3 -8 6 -4 21 -27 35 -52 13 -25 29 -48 34
-52 6 -4 6 -8 1 -8 -5 0 -1 -9 9 -20 10 -11 14 -20 9 -20 -5 0 -4 -4 2 -8 11
-7 65 -106 64 -117 0 -3 9 -15 20 -27 11 -12 20 -28 20 -35 0 -7 5 -13 12 -13
6 0 9 -3 6 -6 -4 -3 5 -22 18 -41 13 -20 24 -42 24 -49 0 -8 4 -14 8 -14 4 0
13 -12 19 -27 12 -28 69 -134 88 -163 5 -8 10 -21 11 -27 1 -7 9 -20 18 -29 9
-8 16 -22 16 -30 0 -8 5 -14 10 -14 6 0 10 -9 10 -19 0 -10 7 -21 15 -25 8 -3
15 -15 15 -26 0 -11 4 -20 9 -20 5 0 14 -13 21 -30 7 -16 21 -39 31 -51 10
-12 16 -26 13 -30 -3 -5 -1 -9 4 -9 5 0 12 -8 15 -17 3 -10 24 -51 46 -90 23
-40 39 -73 36 -73 -3 0 3 -10 14 -22 11 -11 18 -25 15 -30 -3 -4 0 -8 6 -8 6
0 8 -5 5 -10 -3 -6 -1 -10 6 -10 7 0 9 -3 6 -6 -3 -4 0 -16 8 -28 8 -11 15
-28 15 -38 0 -10 5 -18 10 -18 6 0 10 -6 10 -14 0 -8 7 -17 16 -20 19 -7 54
20 54 41 0 8 5 11 10 8 6 -3 10 1 10 10 0 8 11 33 25 55 14 22 23 40 19 40 -3
0 2 7 10 16 9 8 14 20 10 25 -3 5 1 12 10 15 8 3 12 12 9 20 -3 8 0 14 6 14 6
0 11 9 11 20 0 11 3 20 8 20 4 0 19 21 32 48 14 26 28 49 33 50 4 2 7 7 7 12
0 17 60 138 75 150 8 7 12 16 9 21 -3 5 0 9 5 9 6 0 11 6 11 14 0 7 7 19 15
26 8 7 15 21 15 32 0 10 6 21 14 24 8 3 17 16 20 30 4 13 11 24 16 24 6 0 10
7 10 16 0 9 8 28 19 42 10 15 22 37 25 50 4 12 12 22 17 22 5 0 8 3 7 7 -2 5
12 29 29 54 18 26 29 49 26 53 -4 3 1 6 11 6 9 0 15 4 11 9 -3 6 4 26 15 45
11 20 20 38 20 41 1 12 46 100 53 103 4 2 7 10 7 17 0 8 6 20 13 27 7 7 14 15
15 18 5 22 15 39 22 35 5 -3 6 5 2 17 -3 14 -2 19 6 14 8 -5 12 0 12 13 0 11
5 23 11 27 6 3 17 22 25 40 8 19 19 34 24 34 5 0 6 7 3 17 -4 11 -3 14 5 9 8
-5 12 0 12 13 0 12 5 21 10 21 6 0 10 7 10 15 0 8 5 15 11 15 5 0 8 4 5 8 -3
5 3 18 14 29 10 12 16 24 13 27 -4 3 -1 6 5 6 7 0 12 6 12 13 0 7 11 29 25 48
13 20 21 39 18 43 -4 3 -2 6 4 6 6 0 14 11 17 25 4 14 11 23 16 20 5 -3 7 0 4
8 -3 8 2 20 10 27 9 7 13 16 10 21 -3 5 0 9 6 9 6 0 9 4 6 8 -3 5 5 20 17 35
12 14 36 49 52 76 17 28 34 51 38 51 5 0 5 4 2 10 -3 5 -2 10 3 10 5 0 9 6 9
13 0 6 11 30 25 52 14 22 28 50 32 63 4 12 12 22 18 22 6 0 8 3 5 6 -8 8 44
104 56 104 5 0 6 4 2 9 -3 5 2 17 11 25 9 9 17 22 18 30 1 7 9 25 19 39 9 15
17 31 17 36 0 5 3 11 8 13 4 2 24 37 46 78 21 41 45 83 54 93 8 9 12 17 8 17
-4 0 5 17 19 37 14 21 25 43 25 49 0 6 7 17 15 24 8 7 13 16 10 20 -3 5 -1 11
5 15 5 3 17 23 27 43 9 20 25 49 35 65 11 15 16 27 11 27 -4 0 0 7 10 14 10 8
18 17 18 20 -1 15 15 43 36 64 13 12 21 22 17 22 -3 0 -1 7 6 15 7 8 10 15 6
15 -3 0 3 9 14 20 12 12 18 25 15 30 -4 6 -3 10 2 10 4 0 13 10 18 23 29 61
82 153 95 165 13 12 13 13 0 6 -9 -4 -7 2 6 17 19 22 32 46 34 67 1 4 8 14 16
23 8 9 11 19 7 22 -3 4 -1 7 5 7 6 0 14 10 18 23 3 12 15 34 26 50 11 15 16
27 11 27 -4 0 0 5 10 11 9 6 15 14 12 20 -4 5 -1 9 6 9 7 0 9 3 6 7 -4 3 3 17
15 30 12 13 18 23 14 23 -4 0 2 12 13 26 12 15 21 33 21 40 0 8 4 14 9 14 5 0
12 11 15 25 4 14 11 25 16 25 6 0 10 6 10 14 0 8 6 21 13 28 7 7 13 15 13 18
-1 3 10 23 23 45 14 22 25 42 26 45 0 3 7 16 15 30 33 54 40 66 60 108 12 23
26 42 31 42 5 0 9 5 9 11 0 5 -6 7 -12 3 -7 -4 -3 3 10 15 12 12 22 28 22 36
0 8 8 19 18 24 9 6 14 11 9 11 -4 0 0 11 9 25 9 14 13 25 9 25 -3 0 0 7 7 15
29 32 39 45 33 45 -3 0 5 17 17 38 13 20 32 55 43 77 11 22 22 42 26 45 6 6
16 31 17 44 0 5 4 12 9 15 4 3 17 24 28 46 11 22 22 42 25 45 3 3 20 38 39 78
19 39 39 72 45 72 5 0 4 6 -2 13 -10 9 -266 12 -1200 14 -1240 2 -1322 3
-1322 16 0 4 -9 3 -19 -3 -13 -7 -20 -7 -23 1 -2 6 -7 7 -11 2z"/>
</g>
</svg>
