<svg xmlns="http://www.w3.org/2000/svg" xmlns:v="https://svgstorm.com"
viewBox = "0 0 815 705"
width="815"
height="705">
<g fill="None" fill-opacity="0.0" stroke="#000000" stroke-opacity="0.00" stroke-width="0.3"><path d="
M 0.00 705.00 
L 815.00 705.00
L 815.00 0.00
L 0.00 0.00
L 0.00 705.00
M 609.00 37.00 
C 605.27 41.23 598.84 39.75 594.00 39.00
C 582.40 37.21 581.95 24.79 587.00 15.00
C 591.13 13.66 595.35 12.42 600.00 13.00
C 600.50 13.00 601.00 13.00 601.00 13.00
C 610.10 14.49 615.83 29.24 609.00 37.00
M 586.00 51.00 
C 588.07 56.48 585.63 61.47 586.00 67.00
C 586.03 67.50 586.00 68.00 586.00 68.00
C 585.65 72.72 581.64 72.66 579.00 73.00
C 572.08 73.88 561.93 75.03 560.07 66.93 C 558.22 58.82 558.78 48.14 568.00 47.00
C 573.78 46.28 583.77 45.11 586.00 51.00
M 641.00 51.00 
C 649.99 51.61 651.93 55.99 650.02 64.02 C 648.12 72.06 654.31 77.34 651.00 85.00
C 648.46 90.88 640.37 90.71 634.33 89.67 C 628.29 88.63 620.26 90.88 614.00 89.00
C 610.53 87.96 607.60 86.15 607.00 82.00
C 606.40 77.82 608.77 74.22 609.00 70.00
C 609.18 66.68 608.87 63.33 609.00 60.00
C 609.43 48.70 620.59 50.00 630.00 50.00
C 633.88 50.00 637.82 50.43 641.00 51.00
M 610.00 115.00 
C 609.65 123.50 615.52 128.62 624.00 126.00 C 632.48 123.38 641.28 128.42 649.00 125.00
C 649.14 124.54 649.00 123.50 649.00 123.00
C 649.00 114.33 646.69 102.72 649.00 95.00
C 652.92 81.90 668.72 91.59 681.00 89.00 C 693.28 86.41 706.57 91.90 721.00 89.00 C 735.43 86.10 732.82 101.52 726.08 110.08 C 719.33 118.63 718.71 128.03 711.25 135.25 C 703.78 142.46 705.30 155.15 695.00 159.00
C 679.87 164.66 661.94 158.03 645.00 160.00 C 628.06 161.97 608.49 159.11 591.00 160.00 C 573.51 160.89 554.69 159.59 537.00 160.00 C 519.31 160.41 501.82 159.82 484.00 160.00 C 466.18 160.18 447.91 159.91 430.00 160.00 C 412.09 160.08 393.95 159.96 376.00 160.00 C 358.05 160.04 339.97 159.97 322.00 160.00
C 323.02 163.02 324.02 165.97 325.00 169.00
C 329.20 177.49 334.42 186.60 339.00 195.00
C 346.45 208.67 355.35 221.44 362.31 235.70 C 369.26 249.95 377.15 264.25 384.92 278.08 C 392.69 291.92 400.59 304.18 409.25 317.75 C 417.92 331.31 422.38 346.44 432.30 359.70 C 442.23 372.95 444.25 390.95 431.25 403.25 C 418.24 415.54 420.39 433.05 407.00 444.00
C 402.69 447.52 401.12 442.73 398.00 439.00
C 377.37 414.38 364.75 382.09 347.70 354.30 C 330.65 326.52 315.71 295.81 300.00 267.00
C 296.04 259.74 290.22 252.05 286.70 244.30 C 283.18 236.56 277.97 228.22 274.23 220.77 C 270.49 213.32 270.76 214.36 268.08 208.92 C 265.39 203.49 263.96 201.47 262.03 196.97 C 260.09 192.48 256.82 189.38 255.25 185.75 C 253.67 182.13 249.66 177.00 248.75 174.25 C 247.83 171.51 240.32 163.83 242.00 162.00
C 233.40 156.01 218.49 161.30 208.00 160.00 C 197.51 158.70 181.43 160.51 171.00 160.00 C 160.57 159.49 145.58 159.74 136.93 159.93 C 128.27 160.12 110.17 162.00 109.00 151.00
C 102.55 148.21 102.48 136.18 98.25 130.75 C 94.01 125.33 90.77 117.25 87.08 110.92 C 83.39 104.59 78.57 95.61 78.00 88.00
C 94.48 89.50 111.11 88.95 128.00 89.00 C 144.89 89.05 162.05 88.98 179.00 89.00 C 195.95 89.02 213.02 89.00 230.00 89.00 C 246.98 89.00 264.01 89.01 281.00 89.00 C 297.99 88.99 315.00 89.04 332.00 89.00 C 349.00 88.96 365.99 89.09 383.00 89.00 C 400.01 88.91 416.97 89.19 434.00 89.00 C 451.03 88.81 467.93 89.42 485.00 89.00 C 502.07 88.58 518.85 89.94 536.00 89.00 C 553.15 88.06 569.67 91.08 587.00 89.00 C 604.33 86.92 617.15 95.91 610.00 115.00
M 601.00 331.00 
C 594.32 342.48 588.41 354.38 582.00 366.00
C 579.39 370.73 576.74 375.62 574.00 380.00
C 569.66 386.93 565.94 393.86 562.00 401.00
C 550.62 421.64 539.78 442.52 528.00 463.00
C 505.86 501.49 481.80 539.80 463.00 580.00
C 461.03 584.21 458.43 588.07 456.00 592.00
C 451.72 598.92 447.73 605.79 444.00 613.00
C 443.83 613.33 443.29 613.77 443.00 614.00
C 435.95 624.71 432.17 640.20 423.00 649.00
C 422.75 649.24 423.00 650.00 423.00 650.00
C 422.14 653.91 418.88 658.32 417.00 662.00
C 413.51 668.84 410.29 679.86 402.00 681.00
C 391.45 660.45 379.13 638.82 368.00 618.00
C 361.99 606.98 355.48 595.03 349.00 584.00
C 342.81 579.67 340.95 568.14 336.08 561.92 C 331.20 555.71 327.45 546.06 324.00 539.00
C 313.07 516.64 298.08 495.65 287.25 472.75 C 276.41 449.86 262.74 428.90 250.00 407.00
C 249.23 406.15 249.53 406.04 249.00 405.00
C 237.63 382.92 225.43 360.61 213.00 339.00
C 209.84 333.50 207.75 328.00 204.23 322.77 C 200.71 317.54 197.38 311.77 195.08 305.92 C 192.77 300.08 188.14 295.14 185.70 289.31 C 183.25 283.47 178.85 278.42 176.25 272.75 C 173.64 267.08 170.30 261.17 167.23 255.77 C 164.16 250.38 160.33 244.69 157.70 239.30 C 155.07 233.92 149.98 227.88 148.69 222.31 C 147.41 216.73 138.50 211.37 139.00 206.00
C 139.46 201.06 147.64 201.63 152.00 201.00 C 156.36 200.38 164.63 202.18 169.00 203.00
C 169.91 203.17 171.07 203.00 172.00 203.00
C 177.03 202.98 182.59 204.63 187.67 203.67 C 192.75 202.71 197.69 201.26 203.00 202.00
C 210.76 203.08 216.56 209.09 220.30 215.70 C 224.04 222.31 227.59 229.29 230.92 236.08 C 234.25 242.86 237.75 249.74 241.77 256.23 C 245.79 262.72 249.08 269.71 252.32 276.68 C 255.56 283.65 260.04 290.69 263.30 297.70 C 266.57 304.70 271.42 310.15 275.25 316.75 C 279.08 323.35 282.12 330.26 286.31 336.70 C 290.49 343.13 293.02 350.32 297.25 356.75 C 301.47 363.18 305.35 370.34 308.78 377.22 C 312.20 384.11 315.73 391.06 318.92 398.08 C 322.12 405.10 327.05 410.49 330.75 417.25 C 334.45 424.00 337.96 430.44 341.77 437.23 C 345.58 444.02 348.42 450.80 352.31 457.70 C 356.19 464.59 359.75 471.23 363.92 478.08 C 368.09 484.92 371.52 489.94 375.75 497.25 C 379.99 504.55 381.04 509.93 386.32 517.68 C 391.61 525.43 391.67 527.63 397.30 537.70 C 402.94 547.76 406.61 538.60 412.00 533.00
C 412.25 532.74 412.89 532.26 413.00 532.00
C 414.53 528.33 416.15 525.27 418.00 522.00
C 418.36 521.37 418.68 519.80 419.00 519.00
C 422.16 511.20 427.44 502.57 431.77 495.77 C 436.10 488.97 439.11 477.50 446.00 473.00
C 445.77 472.64 446.00 472.00 446.00 472.00
C 451.02 458.10 461.13 445.08 469.00 433.00
C 474.46 424.63 477.69 414.26 483.77 405.77 C 489.85 397.28 492.55 385.39 498.32 377.32 C 504.09 369.26 506.27 356.01 514.00 350.00
C 521.24 337.27 528.53 324.99 536.00 312.00
C 541.37 302.66 544.01 292.06 549.00 283.00
C 548.78 274.17 534.27 278.67 527.00 278.00 C 519.73 277.33 507.68 277.29 501.00 280.00
C 499.24 281.25 495.98 285.35 495.00 287.00
C 489.43 301.03 479.78 313.65 473.00 327.00
C 470.54 327.53 467.87 326.42 467.00 324.00
C 462.68 319.04 460.07 311.11 456.74 305.26 C 453.42 299.40 447.53 292.62 446.00 286.00
C 445.89 285.53 446.00 285.00 446.00 285.00
C 445.88 284.74 445.27 284.20 445.00 284.00
C 441.89 281.67 442.65 278.90 441.00 276.00
C 434.50 270.56 432.02 260.89 427.25 253.75 C 422.48 246.62 418.88 237.19 415.00 230.00
C 410.06 220.85 407.99 217.95 402.75 208.25 C 397.50 198.56 413.51 198.16 423.07 199.93 C 432.64 201.69 447.40 199.23 458.00 200.00 C 468.60 200.77 480.89 199.65 492.00 200.00 C 503.11 200.35 515.67 199.82 527.00 200.00 C 538.33 200.18 549.56 199.88 561.00 200.00 C 572.44 200.12 584.51 199.86 596.00 200.00 C 607.49 200.14 618.45 199.74 630.00 200.00 C 641.55 200.26 653.38 199.46 665.00 200.00 C 676.62 200.54 666.27 213.30 663.08 220.08 C 659.88 226.85 654.48 235.84 651.03 243.03 C 647.57 250.21 642.33 257.29 638.70 264.70 C 635.06 272.10 630.13 279.83 626.08 287.08 C 622.03 294.33 618.20 301.84 614.03 309.03 C 609.85 316.22 605.08 323.98 601.00 331.00 Z"/>
</g>
<g fill="None" fill-opacity="0.0" stroke="#4EEEF6" stroke-opacity="0.18" stroke-width="0.3"><path d="
M 594.00 39.00 
C 592.89 38.44 592.76 37.68 592.00 37.00
C 586.65 32.21 584.00 27.21 587.00 19.00
C 589.31 19.45 590.07 16.47 592.00 16.00
C 592.25 15.75 592.68 15.20 593.00 15.00
C 595.16 13.66 597.99 13.95 600.00 13.00
C 595.35 12.42 591.13 13.66 587.00 15.00
C 581.95 24.79 582.40 37.21 594.00 39.00 Z"/>
</g>
<g fill="None" fill-opacity="0.0" stroke="#53E4F4" stroke-opacity="0.35" stroke-width="0.3"><path d="
M 593.00 15.00 
C 595.97 15.89 599.57 14.79 602.00 15.00
C 601.61 14.76 601.27 13.13 601.00 13.00
C 601.00 13.00 600.50 13.00 600.00 13.00
C 597.99 13.95 595.16 13.66 593.00 15.00 Z"/>
</g>
<g fill="None" fill-opacity="0.0" stroke="#44E1EE" stroke-opacity="0.89" stroke-width="0.3"><path d="
M 602.00 15.00 
C 602.96 15.58 605.77 14.38 605.00 17.00
C 600.83 16.36 595.34 18.29 592.00 16.00
C 590.07 16.47 589.31 19.45 587.00 19.00
C 584.00 27.21 586.65 32.21 592.00 37.00
C 597.52 38.93 605.35 34.97 609.00 37.00
C 615.83 29.24 610.10 14.49 601.00 13.00
C 601.27 13.13 601.61 14.76 602.00 15.00 Z"/>
</g>
<g fill="None" fill-opacity="0.0" stroke="#49E6F3" stroke-opacity="0.75" stroke-width="0.3"><path d="
M 592.00 16.00 
C 595.34 18.29 600.83 16.36 605.00 17.00
C 605.77 14.38 602.96 15.58 602.00 15.00
C 599.57 14.79 595.97 15.89 593.00 15.00
C 592.68 15.20 592.25 15.75 592.00 16.00 Z"/>
</g>
<g fill="None" fill-opacity="0.0" stroke="#49ECF3" stroke-opacity="0.29" stroke-width="0.3"><path d="
M 592.00 37.00 
C 592.76 37.68 592.89 38.44 594.00 39.00
C 598.84 39.75 605.27 41.23 609.00 37.00
C 605.35 34.97 597.52 38.93 592.00 37.00 Z"/>
</g>
<g fill="None" fill-opacity="0.0" stroke="#51DDE3" stroke-opacity="0.29" stroke-width="0.3"><path d="
M 579.00 73.00 
C 579.86 72.66 580.85 71.98 581.00 71.00
C 581.07 70.51 581.00 70.00 581.00 70.00
C 576.86 72.10 567.66 73.21 564.70 69.30 C 561.75 65.38 564.09 55.33 563.00 51.00
C 564.60 49.99 565.85 48.47 568.00 49.00
C 568.19 48.92 567.81 47.08 568.00 47.00
C 558.78 48.14 558.22 58.82 560.07 66.93 C 561.93 75.03 572.08 73.88 579.00 73.00 Z"/>
</g>
<g fill="None" fill-opacity="0.0" stroke="#49E7F0" stroke-opacity="0.39" stroke-width="0.3"><path d="
M 568.00 49.00 
C 571.22 53.17 583.14 47.14 586.00 51.00
C 583.77 45.11 573.78 46.28 568.00 47.00
C 567.81 47.08 568.19 48.92 568.00 49.00 Z"/>
</g>
<g fill="None" fill-opacity="0.0" stroke="#45E3F0" stroke-opacity="0.93" stroke-width="0.3"><path d="
M 581.00 70.00 
C 583.24 68.89 582.92 67.55 584.00 65.00
C 585.26 65.08 584.56 67.06 586.00 67.00
C 585.63 61.47 588.07 56.48 586.00 51.00
C 583.14 47.14 571.22 53.17 568.00 49.00
C 565.85 48.47 564.60 49.99 563.00 51.00
C 564.09 55.33 561.75 65.38 564.70 69.30 C 567.66 73.21 576.86 72.10 581.00 70.00 Z"/>
</g>
<g fill="None" fill-opacity="0.0" stroke="#50EEF5" stroke-opacity="0.26" stroke-width="0.3"><path d="
M 609.00 60.00 
C 609.20 59.20 610.46 57.73 611.00 57.00
C 612.45 55.04 614.93 54.36 616.00 52.00
C 626.85 55.57 640.98 49.01 650.00 57.00
C 649.77 60.47 645.65 66.35 648.00 71.00 C 650.35 75.65 647.23 82.08 651.00 85.00
C 654.31 77.34 648.12 72.06 650.02 64.02 C 651.93 55.99 649.99 51.61 641.00 51.00
C 637.39 50.75 632.93 50.28 630.00 50.00
C 620.59 50.00 609.43 48.70 609.00 60.00 Z"/>
</g>
<g fill="None" fill-opacity="0.0" stroke="#0000FF" stroke-opacity="0.00" stroke-width="0.3"><path d="
M 641.00 51.00 
C 637.82 50.43 633.88 50.00 630.00 50.00
C 632.93 50.28 637.39 50.75 641.00 51.00 Z"/>
</g>
<g fill="None" fill-opacity="0.0" stroke="#45E3F0" stroke-opacity="0.93" stroke-width="0.3"><path d="
M 611.00 57.00 
C 609.58 61.90 614.79 69.10 611.00 74.00
C 609.02 73.53 611.11 70.40 609.00 70.00
C 608.77 74.22 606.40 77.82 607.00 82.00
C 607.54 83.80 610.28 85.16 612.00 84.00
C 611.48 86.14 614.57 86.81 614.00 89.00
C 620.26 90.88 628.29 88.63 634.33 89.67 C 640.37 90.71 648.46 90.88 651.00 85.00
C 647.23 82.08 650.35 75.65 648.00 71.00 C 645.65 66.35 649.77 60.47 650.00 57.00
C 640.98 49.01 626.85 55.57 616.00 52.00
C 614.93 54.36 612.45 55.04 611.00 57.00 Z"/>
</g>
<g fill="None" fill-opacity="0.0" stroke="#51E5EF" stroke-opacity="0.44" stroke-width="0.3"><path d="
M 609.00 60.00 
C 608.87 63.33 609.18 66.68 609.00 70.00
C 611.11 70.40 609.02 73.53 611.00 74.00
C 614.79 69.10 609.58 61.90 611.00 57.00
C 610.46 57.73 609.20 59.20 609.00 60.00 Z"/>
</g>
<g fill="None" fill-opacity="0.0" stroke="#55EEF4" stroke-opacity="0.49" stroke-width="0.3"><path d="
M 581.00 70.00 
C 581.00 70.00 581.07 70.51 581.00 71.00
C 582.71 70.82 584.83 69.24 586.00 68.00
C 586.00 68.00 586.03 67.50 586.00 67.00
C 584.56 67.06 585.26 65.08 584.00 65.00
C 582.92 67.55 583.24 68.89 581.00 70.00 Z"/>
</g>
<g fill="None" fill-opacity="0.0" stroke="#51E7F1" stroke-opacity="0.06" stroke-width="0.3"><path d="
M 581.00 71.00 
C 580.85 71.98 579.86 72.66 579.00 73.00
C 581.64 72.66 585.65 72.72 586.00 68.00
C 584.83 69.24 582.71 70.82 581.00 71.00 Z"/>
</g>
<g fill="None" fill-opacity="0.0" stroke="#4EE0E0" stroke-opacity="0.27" stroke-width="0.3"><path d="
M 614.00 89.00 
C 614.57 86.81 611.48 86.14 612.00 84.00
C 610.28 85.16 607.54 83.80 607.00 82.00
C 607.60 86.15 610.53 87.96 614.00 89.00 Z"/>
</g>
<g fill="None" fill-opacity="0.0" stroke="#FEFEFE" stroke-opacity="0.24" stroke-width="0.3"><path d="
M 109.00 151.00 
C 109.42 151.18 110.00 151.00 110.00 151.00
C 104.14 142.00 103.67 132.21 97.08 121.92 C 90.48 111.64 84.72 101.26 80.00 94.00
C 87.32 88.25 99.25 92.99 111.00 92.00 C 122.75 91.01 136.84 92.46 149.00 92.00 C 161.16 91.54 173.65 92.20 186.00 92.00 C 198.35 91.80 211.56 92.09 224.00 92.00 C 236.44 91.91 248.52 92.04 261.00 92.00 C 273.48 91.96 286.51 92.02 299.00 92.00 C 311.49 91.98 323.50 92.01 336.00 92.00 C 348.50 91.99 361.49 92.01 374.00 92.00 C 386.51 91.99 398.48 92.01 411.00 92.00 C 423.52 91.99 436.47 92.01 449.00 92.00 C 461.53 91.99 473.44 92.03 486.00 92.00 C 498.56 91.97 511.38 92.05 524.00 92.00 C 536.62 91.95 548.23 92.12 561.00 92.00 C 573.77 91.88 585.91 92.27 599.00 92.00 C 612.09 91.73 606.95 110.90 610.00 115.00
C 617.15 95.91 604.33 86.92 587.00 89.00 C 569.67 91.08 553.15 88.06 536.00 89.00 C 518.85 89.94 502.07 88.58 485.00 89.00 C 467.93 89.42 451.03 88.81 434.00 89.00 C 416.97 89.19 400.01 88.91 383.00 89.00 C 365.99 89.09 349.00 88.96 332.00 89.00 C 315.00 89.04 297.99 88.99 281.00 89.00 C 264.01 89.01 246.98 89.00 230.00 89.00 C 213.02 89.00 195.95 89.02 179.00 89.00 C 162.05 88.98 144.89 89.05 128.00 89.00 C 111.11 88.95 94.48 89.50 78.00 88.00
C 78.57 95.61 83.39 104.59 87.08 110.92 C 90.77 117.25 94.01 125.33 98.25 130.75 C 102.48 136.18 102.55 148.21 109.00 151.00 Z"/>
</g>
<g fill="None" fill-opacity="0.0" stroke="#F7F7F7" stroke-opacity="0.05" stroke-width="0.3"><path d="
M 649.00 95.00 
C 651.87 88.87 660.22 89.26 666.07 90.07 C 671.92 90.88 681.47 90.00 688.00 90.00
C 696.49 90.00 705.57 89.57 714.00 90.00 C 722.43 90.43 733.90 86.57 730.00 97.00
C 726.37 106.72 721.20 120.31 714.70 128.69 C 708.20 137.08 703.61 151.75 695.00 157.00
C 694.78 157.14 695.24 158.69 695.00 159.00
C 705.30 155.15 703.78 142.46 711.25 135.25 C 718.71 128.03 719.33 118.63 726.08 110.08 C 732.82 101.52 735.43 86.10 721.00 89.00 C 706.57 91.90 693.28 86.41 681.00 89.00 C 668.72 91.59 652.92 81.90 649.00 95.00 Z"/>
</g>
<g fill="None" fill-opacity="0.0" stroke="#FCFCFC" stroke-opacity="0.98" stroke-width="0.3"><path d="
M 110.00 151.00 
C 129.03 160.31 149.80 156.64 172.00 157.00 C 194.20 157.36 218.60 156.73 241.00 157.00
C 240.74 159.81 245.20 161.37 244.00 163.00
C 252.49 172.30 256.87 186.60 263.77 197.23 C 270.67 207.86 276.06 221.69 282.31 232.70 C 288.55 243.70 296.77 256.98 300.00 267.00
C 315.71 295.81 330.65 326.52 347.70 354.30 C 364.75 382.09 377.37 414.38 398.00 439.00
C 397.56 438.01 396.74 437.23 397.00 436.00
C 400.01 438.76 403.11 444.42 407.00 444.00
C 420.39 433.05 418.24 415.54 431.25 403.25 C 444.25 390.95 442.23 372.95 432.30 359.70 C 422.38 346.44 417.92 331.31 409.25 317.75 C 400.59 304.18 392.69 291.92 384.92 278.08 C 377.15 264.25 369.26 249.95 362.31 235.70 C 355.35 221.44 346.45 208.67 339.00 195.00
C 335.20 190.76 326.65 177.11 324.00 170.00
C 323.72 170.12 315.18 156.66 325.00 157.00 C 334.82 157.35 343.36 156.85 353.00 157.00 C 362.64 157.15 372.43 156.93 382.00 157.00 C 391.57 157.07 400.47 156.97 410.00 157.00 C 419.53 157.03 429.49 156.98 439.00 157.00 C 448.51 157.02 457.50 156.99 467.00 157.00 C 476.50 157.01 486.52 156.98 496.00 157.00 C 505.48 157.02 514.57 156.97 524.00 157.00 C 533.43 157.03 542.55 156.93 552.00 157.00 C 561.45 157.07 571.57 156.85 581.00 157.00 C 590.43 157.15 599.64 156.66 609.00 157.00 C 618.36 157.34 628.80 156.28 638.00 157.00 C 647.20 157.72 657.20 155.34 666.00 157.00 C 674.80 158.66 687.01 153.45 695.00 157.00
C 703.61 151.75 708.20 137.08 714.70 128.69 C 721.20 120.31 726.37 106.72 730.00 97.00
C 730.05 96.42 728.83 94.29 730.00 93.00
C 716.76 89.43 700.32 95.21 688.00 90.00
C 681.47 90.00 671.92 90.88 666.07 90.07 C 660.22 89.26 651.87 88.87 649.00 95.00
C 646.69 102.72 649.00 114.33 649.00 123.00
C 649.03 123.23 652.90 127.30 648.00 128.00
C 647.47 126.72 648.97 126.14 649.00 125.00
C 641.28 128.42 632.48 123.38 624.00 126.00 C 615.52 128.62 609.65 123.50 610.00 115.00
C 606.95 110.90 612.09 91.73 599.00 92.00 C 585.91 92.27 573.77 91.88 561.00 92.00 C 548.23 92.12 536.62 91.95 524.00 92.00 C 511.38 92.05 498.56 91.97 486.00 92.00 C 473.44 92.03 461.53 91.99 449.00 92.00 C 436.47 92.01 423.52 91.99 411.00 92.00 C 398.48 92.01 386.51 91.99 374.00 92.00 C 361.49 92.01 348.50 91.99 336.00 92.00 C 323.50 92.01 311.49 91.98 299.00 92.00 C 286.51 92.02 273.48 91.96 261.00 92.00 C 248.52 92.04 236.44 91.91 224.00 92.00 C 211.56 92.09 198.35 91.80 186.00 92.00 C 173.65 92.20 161.16 91.54 149.00 92.00 C 136.84 92.46 122.75 91.01 111.00 92.00 C 99.25 92.99 87.32 88.25 80.00 94.00
C 84.72 101.26 90.48 111.64 97.08 121.92 C 103.67 132.21 104.14 142.00 110.00 151.00
M 312.00 284.00 
C 308.94 283.38 307.95 278.76 307.00 276.00
C 309.46 277.87 310.96 281.18 312.00 284.00
M 335.00 323.00 
C 339.87 328.79 331.99 328.03 335.00 323.00 Z"/>
</g>
<g fill="None" fill-opacity="0.0" stroke="#FEFEFE" stroke-opacity="0.38" stroke-width="0.3"><path d="
M 730.00 97.00 
C 733.90 86.57 722.43 90.43 714.00 90.00 C 705.57 89.57 696.49 90.00 688.00 90.00
C 700.32 95.21 716.76 89.43 730.00 93.00
C 728.83 94.29 730.05 96.42 730.00 97.00 Z"/>
</g>
<g fill="None" fill-opacity="0.0" stroke="#FDFDFD" stroke-opacity="0.56" stroke-width="0.3"><path d="
M 649.00 125.00 
C 648.97 126.14 647.47 126.72 648.00 128.00
C 652.90 127.30 649.03 123.23 649.00 123.00
C 649.00 123.50 649.14 124.54 649.00 125.00 Z"/>
</g>
<g fill="None" fill-opacity="0.0" stroke="#FCFCFC" stroke-opacity="0.33" stroke-width="0.3"><path d="
M 242.00 162.00 
C 242.43 162.30 243.71 162.68 244.00 163.00
C 245.20 161.37 240.74 159.81 241.00 157.00
C 218.60 156.73 194.20 157.36 172.00 157.00 C 149.80 156.64 129.03 160.31 110.00 151.00
C 110.00 151.00 109.42 151.18 109.00 151.00
C 110.17 162.00 128.27 160.12 136.93 159.93 C 145.58 159.74 160.57 159.49 171.00 160.00 C 181.43 160.51 197.51 158.70 208.00 160.00 C 218.49 161.30 233.40 156.01 242.00 162.00 Z"/>
</g>
<g fill="None" fill-opacity="0.0" stroke="#FEFEFE" stroke-opacity="0.34" stroke-width="0.3"><path d="
M 324.00 170.00 
C 323.91 169.76 324.99 169.18 325.00 169.00
C 324.02 165.97 323.02 163.02 322.00 160.00
C 339.97 159.97 358.05 160.04 376.00 160.00 C 393.95 159.96 412.09 160.08 430.00 160.00 C 447.91 159.91 466.18 160.18 484.00 160.00 C 501.82 159.82 519.31 160.41 537.00 160.00 C 554.69 159.59 573.51 160.89 591.00 160.00 C 608.49 159.11 628.06 161.97 645.00 160.00 C 661.94 158.03 679.87 164.66 695.00 159.00
C 695.24 158.69 694.78 157.14 695.00 157.00
C 687.01 153.45 674.80 158.66 666.00 157.00 C 657.20 155.34 647.20 157.72 638.00 157.00 C 628.80 156.28 618.36 157.34 609.00 157.00 C 599.64 156.66 590.43 157.15 581.00 157.00 C 571.57 156.85 561.45 157.07 552.00 157.00 C 542.55 156.93 533.43 157.03 524.00 157.00 C 514.57 156.97 505.48 157.02 496.00 157.00 C 486.52 156.98 476.50 157.01 467.00 157.00 C 457.50 156.99 448.51 157.02 439.00 157.00 C 429.49 156.98 419.53 157.03 410.00 157.00 C 400.47 156.97 391.57 157.07 382.00 157.00 C 372.43 156.93 362.64 157.15 353.00 157.00 C 343.36 156.85 334.82 157.35 325.00 157.00 C 315.18 156.66 323.72 170.12 324.00 170.00 Z"/>
</g>
<g fill="None" fill-opacity="0.0" stroke="#F6F6F5" stroke-opacity="0.06" stroke-width="0.3"><path d="
M 300.00 267.00 
C 296.77 256.98 288.55 243.70 282.31 232.70 C 276.06 221.69 270.67 207.86 263.77 197.23 C 256.87 186.60 252.49 172.30 244.00 163.00
C 243.71 162.68 242.43 162.30 242.00 162.00
C 240.32 163.83 247.83 171.51 248.75 174.25 C 249.66 177.00 253.67 182.13 255.25 185.75 C 256.82 189.38 260.09 192.48 262.03 196.97 C 263.96 201.47 265.39 203.49 268.08 208.92 C 270.76 214.36 270.49 213.32 274.23 220.77 C 277.97 228.22 283.18 236.56 286.70 244.30 C 290.22 252.05 296.04 259.74 300.00 267.00 Z"/>
</g>
<g fill="None" fill-opacity="0.0" stroke="#F2F2F2" stroke-opacity="0.07" stroke-width="0.3"><path d="
M 324.00 170.00 
C 326.65 177.11 335.20 190.76 339.00 195.00
C 334.42 186.60 329.20 177.49 325.00 169.00
C 324.99 169.18 323.91 169.76 324.00 170.00 Z"/>
</g>
<g fill="None" fill-opacity="0.0" stroke="#4AF5FA" stroke-opacity="0.25" stroke-width="0.3"><path d="
M 415.00 230.00 
C 413.31 222.17 410.50 211.90 403.00 206.00
C 413.27 197.69 428.20 204.21 442.07 202.07 C 455.94 199.94 471.43 204.01 486.00 203.00 C 500.57 201.99 517.13 203.47 532.00 203.00 C 546.87 202.53 562.01 203.22 577.00 203.00 C 591.99 202.78 606.90 203.11 622.00 203.00 C 637.10 202.89 652.84 203.08 668.00 203.00
C 666.65 210.65 662.04 214.98 659.23 221.23 C 656.42 227.49 653.05 234.45 649.23 240.23 C 645.41 246.01 643.01 253.25 639.08 259.08 C 635.15 264.91 632.36 271.74 628.70 277.70 C 625.03 283.65 621.57 290.46 618.23 296.23 C 614.89 302.00 609.94 308.75 607.70 314.69 C 605.45 320.64 596.85 328.59 601.00 331.00
C 605.08 323.98 609.85 316.22 614.03 309.03 C 618.20 301.84 622.03 294.33 626.08 287.08 C 630.13 279.83 635.06 272.10 638.70 264.70 C 642.33 257.29 647.57 250.21 651.03 243.03 C 654.48 235.84 659.88 226.85 663.08 220.08 C 666.27 213.30 676.62 200.54 665.00 200.00 C 653.38 199.46 641.55 200.26 630.00 200.00 C 618.45 199.74 607.49 200.14 596.00 200.00 C 584.51 199.86 572.44 200.12 561.00 200.00 C 549.56 199.88 538.33 200.18 527.00 200.00 C 515.67 199.82 503.11 200.35 492.00 200.00 C 480.89 199.65 468.60 200.77 458.00 200.00 C 447.40 199.23 432.64 201.69 423.07 199.93 C 413.51 198.16 397.50 198.56 402.75 208.25 C 407.99 217.95 410.06 220.85 415.00 230.00 Z"/>
</g>
<g fill="None" fill-opacity="0.0" stroke="#5FF8F2" stroke-opacity="0.24" stroke-width="0.3"><path d="
M 139.00 206.00 
C 142.78 209.27 144.81 215.76 149.00 218.00
C 149.48 214.39 138.37 207.83 143.77 204.77 C 149.18 201.71 159.27 204.75 165.00 205.00
C 165.74 204.92 168.30 203.12 169.00 203.00
C 164.63 202.18 156.36 200.38 152.00 201.00 C 147.64 201.63 139.46 201.06 139.00 206.00 Z"/>
</g>
<g fill="None" fill-opacity="0.0" stroke="#56F4F2" stroke-opacity="0.26" stroke-width="0.3"><path d="
M 172.00 203.00 
C 173.24 203.34 173.48 205.73 174.00 206.00
C 185.28 206.90 193.06 203.36 204.00 205.00
C 204.53 203.72 203.03 203.14 203.00 202.00
C 197.69 201.26 192.75 202.71 187.67 203.67 C 182.59 204.63 177.03 202.98 172.00 203.00 Z"/>
</g>
<g fill="None" fill-opacity="0.0" stroke="#44ECE7" stroke-opacity="0.95" stroke-width="0.3"><path d="
M 174.00 206.00 
C 171.08 205.77 168.03 205.40 165.00 205.00
C 159.27 204.75 149.18 201.71 143.77 204.77 C 138.37 207.83 149.48 214.39 149.00 218.00
C 144.81 215.76 142.78 209.27 139.00 206.00
C 138.50 211.37 147.41 216.73 148.69 222.31 C 149.98 227.88 155.07 233.92 157.70 239.30 C 160.33 244.69 164.16 250.38 167.23 255.77 C 170.30 261.17 173.64 267.08 176.25 272.75 C 178.85 278.42 183.25 283.47 185.70 289.31 C 188.14 295.14 192.77 300.08 195.08 305.92 C 197.38 311.77 200.71 317.54 204.23 322.77 C 207.75 328.00 209.84 333.50 213.00 339.00
C 213.94 338.43 214.82 337.85 216.00 338.00
C 227.09 360.20 238.99 380.78 250.00 403.00
C 251.53 405.40 254.17 407.55 254.00 411.00
C 251.78 410.51 252.26 407.43 250.00 407.00
C 262.74 428.90 276.41 449.86 287.25 472.75 C 298.08 495.65 313.07 516.64 324.00 539.00
C 329.47 543.63 333.62 553.06 337.93 561.07 C 342.23 569.08 347.28 577.30 352.00 585.00
C 353.50 587.61 354.55 590.37 356.00 593.00
C 352.94 592.38 351.95 587.76 351.00 585.00
C 350.62 584.93 349.29 584.20 349.00 584.00
C 355.48 595.03 361.99 606.98 368.00 618.00
C 371.47 621.04 377.13 629.15 380.75 635.25 C 384.37 641.35 387.23 650.97 391.92 656.08 C 396.61 661.19 396.31 674.25 402.75 677.25 C 409.20 680.25 412.19 661.73 416.00 659.00
C 418.38 659.39 414.94 661.67 417.00 662.00
C 418.88 658.32 422.14 653.91 423.00 650.00
C 421.59 651.35 420.66 652.95 419.00 654.00
C 419.03 652.24 421.29 647.29 423.00 649.00
C 432.17 640.20 435.95 624.71 443.00 614.00
C 442.09 614.73 441.03 615.51 440.00 616.00
C 439.95 613.60 441.97 611.96 443.00 610.00
C 445.38 610.39 441.94 612.67 444.00 613.00
C 447.73 605.79 451.72 598.92 456.00 592.00
C 455.35 592.43 453.66 592.25 453.00 593.00
C 455.34 588.82 457.97 579.64 463.00 580.00
C 481.80 539.80 505.86 501.49 528.00 463.00
C 527.20 463.40 525.84 462.68 525.00 463.00
C 529.04 456.24 532.48 448.37 536.77 441.77 C 541.06 435.17 544.21 426.52 548.77 419.77 C 553.34 413.02 555.01 402.88 562.00 401.00
C 565.94 393.86 569.66 386.93 574.00 380.00
C 573.14 380.33 571.90 379.77 571.00 380.00
C 564.23 387.77 556.22 395.14 550.75 404.75 C 545.28 414.35 539.24 422.86 532.23 432.23 C 525.22 441.60 515.77 450.89 503.98 446.02 C 492.18 441.16 481.30 443.13 470.00 436.00
C 471.87 433.62 470.18 433.79 469.00 433.00
C 461.13 445.08 451.02 458.10 446.00 472.00
C 447.11 471.20 448.51 470.43 450.00 470.00
C 448.40 472.49 447.75 476.93 444.00 477.00
C 444.05 475.46 448.03 474.07 446.00 473.00
C 439.11 477.50 436.10 488.97 431.77 495.77 C 427.44 502.57 422.16 511.20 419.00 519.00
C 419.87 517.54 421.36 515.32 423.00 515.00
C 421.88 517.08 420.36 523.22 418.00 522.00
C 416.15 525.27 414.53 528.33 413.00 532.00
C 414.69 531.97 415.04 528.73 417.00 527.00
C 416.82 530.39 415.11 534.28 412.00 536.00
C 412.00 535.00 412.00 534.00 412.00 533.00
C 406.61 538.60 402.94 547.76 397.30 537.70 C 391.67 527.63 391.61 525.43 386.32 517.68 C 381.04 509.93 379.99 504.55 375.75 497.25 C 371.52 489.94 368.09 484.92 363.92 478.08 C 359.75 471.23 356.19 464.59 352.31 457.70 C 348.42 450.80 345.58 444.02 341.77 437.23 C 337.96 430.44 334.45 424.00 330.75 417.25 C 327.05 410.49 322.12 405.10 318.92 398.08 C 315.73 391.06 312.20 384.11 308.78 377.22 C 305.35 370.34 301.47 363.18 297.25 356.75 C 293.02 350.32 290.49 343.13 286.31 336.70 C 282.12 330.26 279.08 323.35 275.25 316.75 C 271.42 310.15 266.57 304.70 263.30 297.70 C 260.04 290.69 255.56 283.65 252.32 276.68 C 249.08 269.71 245.79 262.72 241.77 256.23 C 237.75 249.74 234.25 242.86 230.92 236.08 C 227.59 229.29 224.04 222.31 220.30 215.70 C 216.56 209.09 210.76 203.08 203.00 202.00
C 203.03 203.14 204.53 203.72 204.00 205.00
C 193.06 203.36 185.28 206.90 174.00 206.00
M 210.00 329.00 
C 207.52 326.62 205.33 323.16 204.00 320.00
C 207.03 322.09 210.29 325.04 210.00 329.00
M 297.00 489.00 
C 297.48 486.17 295.26 484.19 294.00 482.00
C 297.04 481.76 299.43 487.23 297.00 489.00
M 366.00 612.00 
C 363.54 610.14 362.04 606.82 361.00 604.00
C 363.83 605.69 366.26 608.57 366.00 612.00 Z"/>
</g>
<g fill="None" fill-opacity="0.0" stroke="#44E6F2" stroke-opacity="0.98" stroke-width="0.3"><path d="
M 415.00 230.00 
C 418.88 237.19 422.48 246.62 427.25 253.75 C 432.02 260.89 434.50 270.56 441.00 276.00
C 443.76 278.30 448.63 284.65 450.00 290.00
C 447.78 289.51 448.26 286.43 446.00 286.00
C 447.53 292.62 453.42 299.40 456.74 305.26 C 460.07 311.11 462.68 319.04 467.00 324.00
C 466.54 321.36 470.18 323.66 471.00 324.00
C 477.55 317.67 478.70 309.89 483.75 302.75 C 488.81 295.62 490.81 288.64 496.30 281.30 C 501.80 273.96 516.37 275.22 525.00 276.00 C 533.63 276.78 552.51 271.12 552.00 283.00
C 551.00 283.00 550.00 283.00 549.00 283.00
C 544.01 292.06 541.37 302.66 536.00 312.00
C 535.48 316.64 531.83 325.45 526.75 331.75 C 521.67 338.05 519.07 346.06 514.00 350.00
C 506.27 356.01 504.09 369.26 498.32 377.32 C 492.55 385.39 489.85 397.28 483.77 405.77 C 477.69 414.26 474.46 424.63 469.00 433.00
C 470.18 433.79 471.87 433.62 470.00 436.00
C 481.30 443.13 492.18 441.16 503.98 446.02 C 515.77 450.89 525.22 441.60 532.23 432.23 C 539.24 422.86 545.28 414.35 550.75 404.75 C 556.22 395.14 564.23 387.77 571.00 380.00
C 576.03 374.22 578.07 369.06 582.00 366.00
C 588.41 354.38 594.32 342.48 601.00 331.00
C 596.85 328.59 605.45 320.64 607.70 314.69 C 609.94 308.75 614.89 302.00 618.23 296.23 C 621.57 290.46 625.03 283.65 628.70 277.70 C 632.36 271.74 635.15 264.91 639.08 259.08 C 643.01 253.25 645.41 246.01 649.23 240.23 C 653.05 234.45 656.42 227.49 659.23 221.23 C 662.04 214.98 666.65 210.65 668.00 203.00
C 652.84 203.08 637.10 202.89 622.00 203.00 C 606.90 203.11 591.99 202.78 577.00 203.00 C 562.01 203.22 546.87 202.53 532.00 203.00 C 517.13 203.47 500.57 201.99 486.00 203.00 C 471.43 204.01 455.94 199.94 442.07 202.07 C 428.20 204.21 413.27 197.69 403.00 206.00
C 410.50 211.90 413.31 222.17 415.00 230.00
M 433.00 260.00 
C 431.80 257.06 428.76 254.32 428.00 251.00
C 430.91 252.99 433.44 256.28 433.00 260.00
M 501.00 377.00 
C 500.84 380.92 498.48 384.99 495.00 387.00
C 496.99 383.81 497.99 379.44 501.00 377.00 Z"/>
</g>
<g fill="None" fill-opacity="0.0" stroke="#46EAE9" stroke-opacity="0.46" stroke-width="0.3"><path d="
M 165.00 205.00 
C 168.03 205.40 171.08 205.77 174.00 206.00
C 173.48 205.73 173.24 203.34 172.00 203.00
C 171.07 203.00 169.91 203.17 169.00 203.00
C 168.30 203.12 165.74 204.92 165.00 205.00 Z"/>
</g>
<g fill="None" fill-opacity="0.0" stroke="#52F1F8" stroke-opacity="0.60" stroke-width="0.3"><path d="
M 433.00 260.00 
C 433.44 256.28 430.91 252.99 428.00 251.00
C 428.76 254.32 431.80 257.06 433.00 260.00 Z"/>
</g>
<g fill="None" fill-opacity="0.0" stroke="#52F2FB" stroke-opacity="0.28" stroke-width="0.3"><path d="
M 441.00 276.00 
C 442.65 278.90 441.89 281.67 445.00 284.00
C 445.32 284.19 445.97 284.65 446.00 285.00
C 446.00 285.00 445.89 285.53 446.00 286.00
C 448.26 286.43 447.78 289.51 450.00 290.00
C 448.63 284.65 443.76 278.30 441.00 276.00 Z"/>
</g>
<g fill="None" fill-opacity="0.0" stroke="#FEFEFE" stroke-opacity="0.65" stroke-width="0.3"><path d="
M 312.00 284.00 
C 310.96 281.18 309.46 277.87 307.00 276.00
C 307.95 278.76 308.94 283.38 312.00 284.00 Z"/>
</g>
<g fill="None" fill-opacity="0.0" stroke="#4EECF3" stroke-opacity="0.27" stroke-width="0.3"><path d="
M 467.00 324.00 
C 467.87 326.42 470.54 327.53 473.00 327.00
C 479.78 313.65 489.43 301.03 495.00 287.00
C 496.56 283.06 498.28 281.10 501.00 280.00
C 507.68 277.29 519.73 277.33 527.00 278.00 C 534.27 278.67 548.78 274.17 549.00 283.00
C 550.00 283.00 551.00 283.00 552.00 283.00
C 552.51 271.12 533.63 276.78 525.00 276.00 C 516.37 275.22 501.80 273.96 496.30 281.30 C 490.81 288.64 488.81 295.62 483.75 302.75 C 478.70 309.89 477.55 317.67 471.00 324.00
C 470.18 323.66 466.54 321.36 467.00 324.00 Z"/>
</g>
<g fill="None" fill-opacity="0.0" stroke="#49EFF1" stroke-opacity="0.04" stroke-width="0.3"><path d="
M 495.00 287.00 
C 495.98 285.35 499.24 281.25 501.00 280.00
C 498.28 281.10 496.56 283.06 495.00 287.00 Z"/>
</g>
<g fill="None" fill-opacity="0.0" stroke="#55AAFF" stroke-opacity="0.01" stroke-width="0.3"><path d="
M 446.00 285.00 
C 445.97 284.65 445.32 284.19 445.00 284.00
C 445.27 284.20 445.88 284.74 446.00 285.00 Z"/>
</g>
<g fill="None" fill-opacity="0.0" stroke="#4EEEF3" stroke-opacity="0.29" stroke-width="0.3"><path d="
M 514.00 350.00 
C 519.07 346.06 521.67 338.05 526.75 331.75 C 531.83 325.45 535.48 316.64 536.00 312.00
C 528.53 324.99 521.24 337.27 514.00 350.00 Z"/>
</g>
<g fill="None" fill-opacity="0.0" stroke="#57F4EE" stroke-opacity="0.44" stroke-width="0.3"><path d="
M 210.00 329.00 
C 210.29 325.04 207.03 322.09 204.00 320.00
C 205.33 323.16 207.52 326.62 210.00 329.00 Z"/>
</g>
<g fill="None" fill-opacity="0.0" stroke="#FEFEFE" stroke-opacity="0.60" stroke-width="0.3"><path d="
M 335.00 323.00 
C 331.99 328.03 339.87 328.79 335.00 323.00 Z"/>
</g>
<g fill="None" fill-opacity="0.0" stroke="#52F2EF" stroke-opacity="0.24" stroke-width="0.3"><path d="
M 213.00 339.00 
C 225.43 360.61 237.63 382.92 249.00 405.00
C 249.08 404.51 250.08 404.10 250.00 403.00
C 238.99 380.78 227.09 360.20 216.00 338.00
C 214.82 337.85 213.94 338.43 213.00 339.00 Z"/>
</g>
<g fill="None" fill-opacity="0.0" stroke="#58F4F8" stroke-opacity="0.30" stroke-width="0.3"><path d="
M 571.00 380.00 
C 571.90 379.77 573.14 380.33 574.00 380.00
C 576.74 375.62 579.39 370.73 582.00 366.00
C 578.07 369.06 576.03 374.22 571.00 380.00 Z"/>
</g>
<g fill="None" fill-opacity="0.0" stroke="#4FF0F9" stroke-opacity="0.52" stroke-width="0.3"><path d="
M 501.00 377.00 
C 497.99 379.44 496.99 383.81 495.00 387.00
C 498.48 384.99 500.84 380.92 501.00 377.00 Z"/>
</g>
<g fill="None" fill-opacity="0.0" stroke="#52F2EF" stroke-opacity="0.28" stroke-width="0.3"><path d="
M 528.00 463.00 
C 539.78 442.52 550.62 421.64 562.00 401.00
C 555.01 402.88 553.34 413.02 548.77 419.77 C 544.21 426.52 541.06 435.17 536.77 441.77 C 532.48 448.37 529.04 456.24 525.00 463.00
C 525.84 462.68 527.20 463.40 528.00 463.00 Z"/>
</g>
<g fill="None" fill-opacity="0.0" stroke="#4BF5EE" stroke-opacity="0.42" stroke-width="0.3"><path d="
M 249.00 405.00 
C 249.53 406.04 249.23 406.15 250.00 407.00
C 252.26 407.43 251.78 410.51 254.00 411.00
C 254.17 407.55 251.53 405.40 250.00 403.00
C 250.08 404.10 249.08 404.51 249.00 405.00 Z"/>
</g>
<g fill="None" fill-opacity="0.0" stroke="#F0F0F0" stroke-opacity="0.14" stroke-width="0.3"><path d="
M 398.00 439.00 
C 401.12 442.73 402.69 447.52 407.00 444.00
C 403.11 444.42 400.01 438.76 397.00 436.00
C 396.74 437.23 397.56 438.01 398.00 439.00 Z"/>
</g>
<g fill="None" fill-opacity="0.0" stroke="#53F0E4" stroke-opacity="0.53" stroke-width="0.3"><path d="
M 446.00 472.00 
C 446.00 472.00 445.77 472.64 446.00 473.00
C 448.03 474.07 444.05 475.46 444.00 477.00
C 447.75 476.93 448.40 472.49 450.00 470.00
C 448.51 470.43 447.11 471.20 446.00 472.00 Z"/>
</g>
<g fill="None" fill-opacity="0.0" stroke="#54F5F1" stroke-opacity="0.56" stroke-width="0.3"><path d="
M 297.00 489.00 
C 299.43 487.23 297.04 481.76 294.00 482.00
C 295.26 484.19 297.48 486.17 297.00 489.00 Z"/>
</g>
<g fill="None" fill-opacity="0.0" stroke="#52F4F2" stroke-opacity="0.24" stroke-width="0.3"><path d="
M 419.00 519.00 
C 418.68 519.80 418.36 521.37 418.00 522.00
C 420.36 523.22 421.88 517.08 423.00 515.00
C 421.36 515.32 419.87 517.54 419.00 519.00 Z"/>
</g>
<g fill="None" fill-opacity="0.0" stroke="#63F0E9" stroke-opacity="0.55" stroke-width="0.3"><path d="
M 413.00 532.00 
C 412.89 532.26 412.25 532.74 412.00 533.00
C 412.00 534.00 412.00 535.00 412.00 536.00
C 415.11 534.28 416.82 530.39 417.00 527.00
C 415.04 528.73 414.69 531.97 413.00 532.00 Z"/>
</g>
<g fill="None" fill-opacity="0.0" stroke="#52F4F2" stroke-opacity="0.24" stroke-width="0.3"><path d="
M 324.00 539.00 
C 327.45 546.06 331.20 555.71 336.08 561.92 C 340.95 568.14 342.81 579.67 349.00 584.00
C 349.29 584.20 350.62 584.93 351.00 585.00
C 351.48 585.09 352.00 585.00 352.00 585.00
C 347.28 577.30 342.23 569.08 337.93 561.07 C 333.62 553.06 329.47 543.63 324.00 539.00 Z"/>
</g>
<g fill="None" fill-opacity="0.0" stroke="#4FF2ED" stroke-opacity="0.25" stroke-width="0.3"><path d="
M 456.00 592.00 
C 458.43 588.07 461.03 584.21 463.00 580.00
C 457.97 579.64 455.34 588.82 453.00 593.00
C 453.66 592.25 455.35 592.43 456.00 592.00 Z"/>
</g>
<g fill="None" fill-opacity="0.0" stroke="#58F7F0" stroke-opacity="0.40" stroke-width="0.3"><path d="
M 352.00 585.00 
C 352.00 585.00 351.48 585.09 351.00 585.00
C 351.95 587.76 352.94 592.38 356.00 593.00
C 354.55 590.37 353.50 587.61 352.00 585.00 Z"/>
</g>
<g fill="None" fill-opacity="0.0" stroke="#55F7F1" stroke-opacity="0.47" stroke-width="0.3"><path d="
M 366.00 612.00 
C 366.26 608.57 363.83 605.69 361.00 604.00
C 362.04 606.82 363.54 610.14 366.00 612.00 Z"/>
</g>
<g fill="None" fill-opacity="0.0" stroke="#4EEBE9" stroke-opacity="0.37" stroke-width="0.3"><path d="
M 443.00 614.00 
C 443.29 613.77 443.83 613.33 444.00 613.00
C 441.94 612.67 445.38 610.39 443.00 610.00
C 441.97 611.96 439.95 613.60 440.00 616.00
C 441.03 615.51 442.09 614.73 443.00 614.00 Z"/>
</g>
<g fill="None" fill-opacity="0.0" stroke="#52F1EC" stroke-opacity="0.28" stroke-width="0.3"><path d="
M 368.00 618.00 
C 379.13 638.82 391.45 660.45 402.00 681.00
C 410.29 679.86 413.51 668.84 417.00 662.00
C 414.94 661.67 418.38 659.39 416.00 659.00
C 412.19 661.73 409.20 680.25 402.75 677.25 C 396.31 674.25 396.61 661.19 391.92 656.08 C 387.23 650.97 384.37 641.35 380.75 635.25 C 377.13 629.15 371.47 621.04 368.00 618.00 Z"/>
</g>
<g fill="None" fill-opacity="0.0" stroke="#52F7F6" stroke-opacity="0.37" stroke-width="0.3"><path d="
M 423.00 650.00 
C 423.00 650.00 422.75 649.24 423.00 649.00
C 421.29 647.29 419.03 652.24 419.00 654.00
C 420.66 652.95 421.59 651.35 423.00 650.00 Z"/>
</g>
<g fill="#000000" fill-opacity="0.00" stroke="None">
<path d="
M 0.00 705.00 
L 815.00 705.00
L 815.00 0.00
L 0.00 0.00
L 0.00 705.00
M 609.00 37.00 
C 605.27 41.23 598.84 39.75 594.00 39.00
C 582.40 37.21 581.95 24.79 587.00 15.00
C 591.13 13.66 595.35 12.42 600.00 13.00
C 600.50 13.00 601.00 13.00 601.00 13.00
C 610.10 14.49 615.83 29.24 609.00 37.00
M 586.00 51.00 
C 588.07 56.48 585.63 61.47 586.00 67.00
C 586.03 67.50 586.00 68.00 586.00 68.00
C 585.65 72.72 581.64 72.66 579.00 73.00
C 572.08 73.88 561.93 75.03 560.07 66.93 C 558.22 58.82 558.78 48.14 568.00 47.00
C 573.78 46.28 583.77 45.11 586.00 51.00
M 641.00 51.00 
C 649.99 51.61 651.93 55.99 650.02 64.02 C 648.12 72.06 654.31 77.34 651.00 85.00
C 648.46 90.88 640.37 90.71 634.33 89.67 C 628.29 88.63 620.26 90.88 614.00 89.00
C 610.53 87.96 607.60 86.15 607.00 82.00
C 606.40 77.82 608.77 74.22 609.00 70.00
C 609.18 66.68 608.87 63.33 609.00 60.00
C 609.43 48.70 620.59 50.00 630.00 50.00
C 633.88 50.00 637.82 50.43 641.00 51.00
M 610.00 115.00 
C 609.65 123.50 615.52 128.62 624.00 126.00 C 632.48 123.38 641.28 128.42 649.00 125.00
C 649.14 124.54 649.00 123.50 649.00 123.00
C 649.00 114.33 646.69 102.72 649.00 95.00
C 652.92 81.90 668.72 91.59 681.00 89.00 C 693.28 86.41 706.57 91.90 721.00 89.00 C 735.43 86.10 732.82 101.52 726.08 110.08 C 719.33 118.63 718.71 128.03 711.25 135.25 C 703.78 142.46 705.30 155.15 695.00 159.00
C 679.87 164.66 661.94 158.03 645.00 160.00 C 628.06 161.97 608.49 159.11 591.00 160.00 C 573.51 160.89 554.69 159.59 537.00 160.00 C 519.31 160.41 501.82 159.82 484.00 160.00 C 466.18 160.18 447.91 159.91 430.00 160.00 C 412.09 160.08 393.95 159.96 376.00 160.00 C 358.05 160.04 339.97 159.97 322.00 160.00
C 323.02 163.02 324.02 165.97 325.00 169.00
C 329.20 177.49 334.42 186.60 339.00 195.00
C 346.45 208.67 355.35 221.44 362.31 235.70 C 369.26 249.95 377.15 264.25 384.92 278.08 C 392.69 291.92 400.59 304.18 409.25 317.75 C 417.92 331.31 422.38 346.44 432.30 359.70 C 442.23 372.95 444.25 390.95 431.25 403.25 C 418.24 415.54 420.39 433.05 407.00 444.00
C 402.69 447.52 401.12 442.73 398.00 439.00
C 377.37 414.38 364.75 382.09 347.70 354.30 C 330.65 326.52 315.71 295.81 300.00 267.00
C 296.04 259.74 290.22 252.05 286.70 244.30 C 283.18 236.56 277.97 228.22 274.23 220.77 C 270.49 213.32 270.76 214.36 268.08 208.92 C 265.39 203.49 263.96 201.47 262.03 196.97 C 260.09 192.48 256.82 189.38 255.25 185.75 C 253.67 182.13 249.66 177.00 248.75 174.25 C 247.83 171.51 240.32 163.83 242.00 162.00
C 233.40 156.01 218.49 161.30 208.00 160.00 C 197.51 158.70 181.43 160.51 171.00 160.00 C 160.57 159.49 145.58 159.74 136.93 159.93 C 128.27 160.12 110.17 162.00 109.00 151.00
C 102.55 148.21 102.48 136.18 98.25 130.75 C 94.01 125.33 90.77 117.25 87.08 110.92 C 83.39 104.59 78.57 95.61 78.00 88.00
C 94.48 89.50 111.11 88.95 128.00 89.00 C 144.89 89.05 162.05 88.98 179.00 89.00 C 195.95 89.02 213.02 89.00 230.00 89.00 C 246.98 89.00 264.01 89.01 281.00 89.00 C 297.99 88.99 315.00 89.04 332.00 89.00 C 349.00 88.96 365.99 89.09 383.00 89.00 C 400.01 88.91 416.97 89.19 434.00 89.00 C 451.03 88.81 467.93 89.42 485.00 89.00 C 502.07 88.58 518.85 89.94 536.00 89.00 C 553.15 88.06 569.67 91.08 587.00 89.00 C 604.33 86.92 617.15 95.91 610.00 115.00
M 601.00 331.00 
C 594.32 342.48 588.41 354.38 582.00 366.00
C 579.39 370.73 576.74 375.62 574.00 380.00
C 569.66 386.93 565.94 393.86 562.00 401.00
C 550.62 421.64 539.78 442.52 528.00 463.00
C 505.86 501.49 481.80 539.80 463.00 580.00
C 461.03 584.21 458.43 588.07 456.00 592.00
C 451.72 598.92 447.73 605.79 444.00 613.00
C 443.83 613.33 443.29 613.77 443.00 614.00
C 435.95 624.71 432.17 640.20 423.00 649.00
C 422.75 649.24 423.00 650.00 423.00 650.00
C 422.14 653.91 418.88 658.32 417.00 662.00
C 413.51 668.84 410.29 679.86 402.00 681.00
C 391.45 660.45 379.13 638.82 368.00 618.00
C 361.99 606.98 355.48 595.03 349.00 584.00
C 342.81 579.67 340.95 568.14 336.08 561.92 C 331.20 555.71 327.45 546.06 324.00 539.00
C 313.07 516.64 298.08 495.65 287.25 472.75 C 276.41 449.86 262.74 428.90 250.00 407.00
C 249.23 406.15 249.53 406.04 249.00 405.00
C 237.63 382.92 225.43 360.61 213.00 339.00
C 209.84 333.50 207.75 328.00 204.23 322.77 C 200.71 317.54 197.38 311.77 195.08 305.92 C 192.77 300.08 188.14 295.14 185.70 289.31 C 183.25 283.47 178.85 278.42 176.25 272.75 C 173.64 267.08 170.30 261.17 167.23 255.77 C 164.16 250.38 160.33 244.69 157.70 239.30 C 155.07 233.92 149.98 227.88 148.69 222.31 C 147.41 216.73 138.50 211.37 139.00 206.00
C 139.46 201.06 147.64 201.63 152.00 201.00 C 156.36 200.38 164.63 202.18 169.00 203.00
C 169.91 203.17 171.07 203.00 172.00 203.00
C 177.03 202.98 182.59 204.63 187.67 203.67 C 192.75 202.71 197.69 201.26 203.00 202.00
C 210.76 203.08 216.56 209.09 220.30 215.70 C 224.04 222.31 227.59 229.29 230.92 236.08 C 234.25 242.86 237.75 249.74 241.77 256.23 C 245.79 262.72 249.08 269.71 252.32 276.68 C 255.56 283.65 260.04 290.69 263.30 297.70 C 266.57 304.70 271.42 310.15 275.25 316.75 C 279.08 323.35 282.12 330.26 286.31 336.70 C 290.49 343.13 293.02 350.32 297.25 356.75 C 301.47 363.18 305.35 370.34 308.78 377.22 C 312.20 384.11 315.73 391.06 318.92 398.08 C 322.12 405.10 327.05 410.49 330.75 417.25 C 334.45 424.00 337.96 430.44 341.77 437.23 C 345.58 444.02 348.42 450.80 352.31 457.70 C 356.19 464.59 359.75 471.23 363.92 478.08 C 368.09 484.92 371.52 489.94 375.75 497.25 C 379.99 504.55 381.04 509.93 386.32 517.68 C 391.61 525.43 391.67 527.63 397.30 537.70 C 402.94 547.76 406.61 538.60 412.00 533.00
C 412.25 532.74 412.89 532.26 413.00 532.00
C 414.53 528.33 416.15 525.27 418.00 522.00
C 418.36 521.37 418.68 519.80 419.00 519.00
C 422.16 511.20 427.44 502.57 431.77 495.77 C 436.10 488.97 439.11 477.50 446.00 473.00
C 445.77 472.64 446.00 472.00 446.00 472.00
C 451.02 458.10 461.13 445.08 469.00 433.00
C 474.46 424.63 477.69 414.26 483.77 405.77 C 489.85 397.28 492.55 385.39 498.32 377.32 C 504.09 369.26 506.27 356.01 514.00 350.00
C 521.24 337.27 528.53 324.99 536.00 312.00
C 541.37 302.66 544.01 292.06 549.00 283.00
C 548.78 274.17 534.27 278.67 527.00 278.00 C 519.73 277.33 507.68 277.29 501.00 280.00
C 499.24 281.25 495.98 285.35 495.00 287.00
C 489.43 301.03 479.78 313.65 473.00 327.00
C 470.54 327.53 467.87 326.42 467.00 324.00
C 462.68 319.04 460.07 311.11 456.74 305.26 C 453.42 299.40 447.53 292.62 446.00 286.00
C 445.89 285.53 446.00 285.00 446.00 285.00
C 445.88 284.74 445.27 284.20 445.00 284.00
C 441.89 281.67 442.65 278.90 441.00 276.00
C 434.50 270.56 432.02 260.89 427.25 253.75 C 422.48 246.62 418.88 237.19 415.00 230.00
C 410.06 220.85 407.99 217.95 402.75 208.25 C 397.50 198.56 413.51 198.16 423.07 199.93 C 432.64 201.69 447.40 199.23 458.00 200.00 C 468.60 200.77 480.89 199.65 492.00 200.00 C 503.11 200.35 515.67 199.82 527.00 200.00 C 538.33 200.18 549.56 199.88 561.00 200.00 C 572.44 200.12 584.51 199.86 596.00 200.00 C 607.49 200.14 618.45 199.74 630.00 200.00 C 641.55 200.26 653.38 199.46 665.00 200.00 C 676.62 200.54 666.27 213.30 663.08 220.08 C 659.88 226.85 654.48 235.84 651.03 243.03 C 647.57 250.21 642.33 257.29 638.70 264.70 C 635.06 272.10 630.13 279.83 626.08 287.08 C 622.03 294.33 618.20 301.84 614.03 309.03 C 609.85 316.22 605.08 323.98 601.00 331.00 Z"/>
</g>
<g fill="#4EEEF6" fill-opacity="0.18" stroke="None">
<path d="
M 594.00 39.00 
C 592.89 38.44 592.76 37.68 592.00 37.00
C 586.65 32.21 584.00 27.21 587.00 19.00
C 589.31 19.45 590.07 16.47 592.00 16.00
C 592.25 15.75 592.68 15.20 593.00 15.00
C 595.16 13.66 597.99 13.95 600.00 13.00
C 595.35 12.42 591.13 13.66 587.00 15.00
C 581.95 24.79 582.40 37.21 594.00 39.00 Z"/>
</g>
<g fill="#53E4F4" fill-opacity="0.35" stroke="None">
<path d="
M 593.00 15.00 
C 595.97 15.89 599.57 14.79 602.00 15.00
C 601.61 14.76 601.27 13.13 601.00 13.00
C 601.00 13.00 600.50 13.00 600.00 13.00
C 597.99 13.95 595.16 13.66 593.00 15.00 Z"/>
</g>
<g fill="#44E1EE" fill-opacity="0.89" stroke="None">
<path d="
M 602.00 15.00 
C 602.96 15.58 605.77 14.38 605.00 17.00
C 600.83 16.36 595.34 18.29 592.00 16.00
C 590.07 16.47 589.31 19.45 587.00 19.00
C 584.00 27.21 586.65 32.21 592.00 37.00
C 597.52 38.93 605.35 34.97 609.00 37.00
C 615.83 29.24 610.10 14.49 601.00 13.00
C 601.27 13.13 601.61 14.76 602.00 15.00 Z"/>
</g>
<g fill="#49E6F3" fill-opacity="0.75" stroke="None">
<path d="
M 592.00 16.00 
C 595.34 18.29 600.83 16.36 605.00 17.00
C 605.77 14.38 602.96 15.58 602.00 15.00
C 599.57 14.79 595.97 15.89 593.00 15.00
C 592.68 15.20 592.25 15.75 592.00 16.00 Z"/>
</g>
<g fill="#49ECF3" fill-opacity="0.29" stroke="None">
<path d="
M 592.00 37.00 
C 592.76 37.68 592.89 38.44 594.00 39.00
C 598.84 39.75 605.27 41.23 609.00 37.00
C 605.35 34.97 597.52 38.93 592.00 37.00 Z"/>
</g>
<g fill="#51DDE3" fill-opacity="0.29" stroke="None">
<path d="
M 579.00 73.00 
C 579.86 72.66 580.85 71.98 581.00 71.00
C 581.07 70.51 581.00 70.00 581.00 70.00
C 576.86 72.10 567.66 73.21 564.70 69.30 C 561.75 65.38 564.09 55.33 563.00 51.00
C 564.60 49.99 565.85 48.47 568.00 49.00
C 568.19 48.92 567.81 47.08 568.00 47.00
C 558.78 48.14 558.22 58.82 560.07 66.93 C 561.93 75.03 572.08 73.88 579.00 73.00 Z"/>
</g>
<g fill="#49E7F0" fill-opacity="0.39" stroke="None">
<path d="
M 568.00 49.00 
C 571.22 53.17 583.14 47.14 586.00 51.00
C 583.77 45.11 573.78 46.28 568.00 47.00
C 567.81 47.08 568.19 48.92 568.00 49.00 Z"/>
</g>
<g fill="#45E3F0" fill-opacity="0.93" stroke="None">
<path d="
M 581.00 70.00 
C 583.24 68.89 582.92 67.55 584.00 65.00
C 585.26 65.08 584.56 67.06 586.00 67.00
C 585.63 61.47 588.07 56.48 586.00 51.00
C 583.14 47.14 571.22 53.17 568.00 49.00
C 565.85 48.47 564.60 49.99 563.00 51.00
C 564.09 55.33 561.75 65.38 564.70 69.30 C 567.66 73.21 576.86 72.10 581.00 70.00 Z"/>
</g>
<g fill="#50EEF5" fill-opacity="0.26" stroke="None">
<path d="
M 609.00 60.00 
C 609.20 59.20 610.46 57.73 611.00 57.00
C 612.45 55.04 614.93 54.36 616.00 52.00
C 626.85 55.57 640.98 49.01 650.00 57.00
C 649.77 60.47 645.65 66.35 648.00 71.00 C 650.35 75.65 647.23 82.08 651.00 85.00
C 654.31 77.34 648.12 72.06 650.02 64.02 C 651.93 55.99 649.99 51.61 641.00 51.00
C 637.39 50.75 632.93 50.28 630.00 50.00
C 620.59 50.00 609.43 48.70 609.00 60.00 Z"/>
</g>
<g fill="#0000FF" fill-opacity="0.00" stroke="None">
<path d="
M 641.00 51.00 
C 637.82 50.43 633.88 50.00 630.00 50.00
C 632.93 50.28 637.39 50.75 641.00 51.00 Z"/>
</g>
<g fill="#45E3F0" fill-opacity="0.93" stroke="None">
<path d="
M 611.00 57.00 
C 609.58 61.90 614.79 69.10 611.00 74.00
C 609.02 73.53 611.11 70.40 609.00 70.00
C 608.77 74.22 606.40 77.82 607.00 82.00
C 607.54 83.80 610.28 85.16 612.00 84.00
C 611.48 86.14 614.57 86.81 614.00 89.00
C 620.26 90.88 628.29 88.63 634.33 89.67 C 640.37 90.71 648.46 90.88 651.00 85.00
C 647.23 82.08 650.35 75.65 648.00 71.00 C 645.65 66.35 649.77 60.47 650.00 57.00
C 640.98 49.01 626.85 55.57 616.00 52.00
C 614.93 54.36 612.45 55.04 611.00 57.00 Z"/>
</g>
<g fill="#51E5EF" fill-opacity="0.44" stroke="None">
<path d="
M 609.00 60.00 
C 608.87 63.33 609.18 66.68 609.00 70.00
C 611.11 70.40 609.02 73.53 611.00 74.00
C 614.79 69.10 609.58 61.90 611.00 57.00
C 610.46 57.73 609.20 59.20 609.00 60.00 Z"/>
</g>
<g fill="#55EEF4" fill-opacity="0.49" stroke="None">
<path d="
M 581.00 70.00 
C 581.00 70.00 581.07 70.51 581.00 71.00
C 582.71 70.82 584.83 69.24 586.00 68.00
C 586.00 68.00 586.03 67.50 586.00 67.00
C 584.56 67.06 585.26 65.08 584.00 65.00
C 582.92 67.55 583.24 68.89 581.00 70.00 Z"/>
</g>
<g fill="#51E7F1" fill-opacity="0.06" stroke="None">
<path d="
M 581.00 71.00 
C 580.85 71.98 579.86 72.66 579.00 73.00
C 581.64 72.66 585.65 72.72 586.00 68.00
C 584.83 69.24 582.71 70.82 581.00 71.00 Z"/>
</g>
<g fill="#4EE0E0" fill-opacity="0.27" stroke="None">
<path d="
M 614.00 89.00 
C 614.57 86.81 611.48 86.14 612.00 84.00
C 610.28 85.16 607.54 83.80 607.00 82.00
C 607.60 86.15 610.53 87.96 614.00 89.00 Z"/>
</g>
<g fill="#FEFEFE" fill-opacity="0.24" stroke="None">
<path d="
M 109.00 151.00 
C 109.42 151.18 110.00 151.00 110.00 151.00
C 104.14 142.00 103.67 132.21 97.08 121.92 C 90.48 111.64 84.72 101.26 80.00 94.00
C 87.32 88.25 99.25 92.99 111.00 92.00 C 122.75 91.01 136.84 92.46 149.00 92.00 C 161.16 91.54 173.65 92.20 186.00 92.00 C 198.35 91.80 211.56 92.09 224.00 92.00 C 236.44 91.91 248.52 92.04 261.00 92.00 C 273.48 91.96 286.51 92.02 299.00 92.00 C 311.49 91.98 323.50 92.01 336.00 92.00 C 348.50 91.99 361.49 92.01 374.00 92.00 C 386.51 91.99 398.48 92.01 411.00 92.00 C 423.52 91.99 436.47 92.01 449.00 92.00 C 461.53 91.99 473.44 92.03 486.00 92.00 C 498.56 91.97 511.38 92.05 524.00 92.00 C 536.62 91.95 548.23 92.12 561.00 92.00 C 573.77 91.88 585.91 92.27 599.00 92.00 C 612.09 91.73 606.95 110.90 610.00 115.00
C 617.15 95.91 604.33 86.92 587.00 89.00 C 569.67 91.08 553.15 88.06 536.00 89.00 C 518.85 89.94 502.07 88.58 485.00 89.00 C 467.93 89.42 451.03 88.81 434.00 89.00 C 416.97 89.19 400.01 88.91 383.00 89.00 C 365.99 89.09 349.00 88.96 332.00 89.00 C 315.00 89.04 297.99 88.99 281.00 89.00 C 264.01 89.01 246.98 89.00 230.00 89.00 C 213.02 89.00 195.95 89.02 179.00 89.00 C 162.05 88.98 144.89 89.05 128.00 89.00 C 111.11 88.95 94.48 89.50 78.00 88.00
C 78.57 95.61 83.39 104.59 87.08 110.92 C 90.77 117.25 94.01 125.33 98.25 130.75 C 102.48 136.18 102.55 148.21 109.00 151.00 Z"/>
</g>
<g fill="#F7F7F7" fill-opacity="0.05" stroke="None">
<path d="
M 649.00 95.00 
C 651.87 88.87 660.22 89.26 666.07 90.07 C 671.92 90.88 681.47 90.00 688.00 90.00
C 696.49 90.00 705.57 89.57 714.00 90.00 C 722.43 90.43 733.90 86.57 730.00 97.00
C 726.37 106.72 721.20 120.31 714.70 128.69 C 708.20 137.08 703.61 151.75 695.00 157.00
C 694.78 157.14 695.24 158.69 695.00 159.00
C 705.30 155.15 703.78 142.46 711.25 135.25 C 718.71 128.03 719.33 118.63 726.08 110.08 C 732.82 101.52 735.43 86.10 721.00 89.00 C 706.57 91.90 693.28 86.41 681.00 89.00 C 668.72 91.59 652.92 81.90 649.00 95.00 Z"/>
</g>
<g fill="#FCFCFC" fill-opacity="0.98" stroke="None">
<path d="
M 110.00 151.00 
C 129.03 160.31 149.80 156.64 172.00 157.00 C 194.20 157.36 218.60 156.73 241.00 157.00
C 240.74 159.81 245.20 161.37 244.00 163.00
C 252.49 172.30 256.87 186.60 263.77 197.23 C 270.67 207.86 276.06 221.69 282.31 232.70 C 288.55 243.70 296.77 256.98 300.00 267.00
C 315.71 295.81 330.65 326.52 347.70 354.30 C 364.75 382.09 377.37 414.38 398.00 439.00
C 397.56 438.01 396.74 437.23 397.00 436.00
C 400.01 438.76 403.11 444.42 407.00 444.00
C 420.39 433.05 418.24 415.54 431.25 403.25 C 444.25 390.95 442.23 372.95 432.30 359.70 C 422.38 346.44 417.92 331.31 409.25 317.75 C 400.59 304.18 392.69 291.92 384.92 278.08 C 377.15 264.25 369.26 249.95 362.31 235.70 C 355.35 221.44 346.45 208.67 339.00 195.00
C 335.20 190.76 326.65 177.11 324.00 170.00
C 323.72 170.12 315.18 156.66 325.00 157.00 C 334.82 157.35 343.36 156.85 353.00 157.00 C 362.64 157.15 372.43 156.93 382.00 157.00 C 391.57 157.07 400.47 156.97 410.00 157.00 C 419.53 157.03 429.49 156.98 439.00 157.00 C 448.51 157.02 457.50 156.99 467.00 157.00 C 476.50 157.01 486.52 156.98 496.00 157.00 C 505.48 157.02 514.57 156.97 524.00 157.00 C 533.43 157.03 542.55 156.93 552.00 157.00 C 561.45 157.07 571.57 156.85 581.00 157.00 C 590.43 157.15 599.64 156.66 609.00 157.00 C 618.36 157.34 628.80 156.28 638.00 157.00 C 647.20 157.72 657.20 155.34 666.00 157.00 C 674.80 158.66 687.01 153.45 695.00 157.00
C 703.61 151.75 708.20 137.08 714.70 128.69 C 721.20 120.31 726.37 106.72 730.00 97.00
C 730.05 96.42 728.83 94.29 730.00 93.00
C 716.76 89.43 700.32 95.21 688.00 90.00
C 681.47 90.00 671.92 90.88 666.07 90.07 C 660.22 89.26 651.87 88.87 649.00 95.00
C 646.69 102.72 649.00 114.33 649.00 123.00
C 649.03 123.23 652.90 127.30 648.00 128.00
C 647.47 126.72 648.97 126.14 649.00 125.00
C 641.28 128.42 632.48 123.38 624.00 126.00 C 615.52 128.62 609.65 123.50 610.00 115.00
C 606.95 110.90 612.09 91.73 599.00 92.00 C 585.91 92.27 573.77 91.88 561.00 92.00 C 548.23 92.12 536.62 91.95 524.00 92.00 C 511.38 92.05 498.56 91.97 486.00 92.00 C 473.44 92.03 461.53 91.99 449.00 92.00 C 436.47 92.01 423.52 91.99 411.00 92.00 C 398.48 92.01 386.51 91.99 374.00 92.00 C 361.49 92.01 348.50 91.99 336.00 92.00 C 323.50 92.01 311.49 91.98 299.00 92.00 C 286.51 92.02 273.48 91.96 261.00 92.00 C 248.52 92.04 236.44 91.91 224.00 92.00 C 211.56 92.09 198.35 91.80 186.00 92.00 C 173.65 92.20 161.16 91.54 149.00 92.00 C 136.84 92.46 122.75 91.01 111.00 92.00 C 99.25 92.99 87.32 88.25 80.00 94.00
C 84.72 101.26 90.48 111.64 97.08 121.92 C 103.67 132.21 104.14 142.00 110.00 151.00
M 312.00 284.00 
C 308.94 283.38 307.95 278.76 307.00 276.00
C 309.46 277.87 310.96 281.18 312.00 284.00
M 335.00 323.00 
C 339.87 328.79 331.99 328.03 335.00 323.00 Z"/>
</g>
<g fill="#FEFEFE" fill-opacity="0.38" stroke="None">
<path d="
M 730.00 97.00 
C 733.90 86.57 722.43 90.43 714.00 90.00 C 705.57 89.57 696.49 90.00 688.00 90.00
C 700.32 95.21 716.76 89.43 730.00 93.00
C 728.83 94.29 730.05 96.42 730.00 97.00 Z"/>
</g>
<g fill="#FDFDFD" fill-opacity="0.56" stroke="None">
<path d="
M 649.00 125.00 
C 648.97 126.14 647.47 126.72 648.00 128.00
C 652.90 127.30 649.03 123.23 649.00 123.00
C 649.00 123.50 649.14 124.54 649.00 125.00 Z"/>
</g>
<g fill="#FCFCFC" fill-opacity="0.33" stroke="None">
<path d="
M 242.00 162.00 
C 242.43 162.30 243.71 162.68 244.00 163.00
C 245.20 161.37 240.74 159.81 241.00 157.00
C 218.60 156.73 194.20 157.36 172.00 157.00 C 149.80 156.64 129.03 160.31 110.00 151.00
C 110.00 151.00 109.42 151.18 109.00 151.00
C 110.17 162.00 128.27 160.12 136.93 159.93 C 145.58 159.74 160.57 159.49 171.00 160.00 C 181.43 160.51 197.51 158.70 208.00 160.00 C 218.49 161.30 233.40 156.01 242.00 162.00 Z"/>
</g>
<g fill="#FEFEFE" fill-opacity="0.34" stroke="None">
<path d="
M 324.00 170.00 
C 323.91 169.76 324.99 169.18 325.00 169.00
C 324.02 165.97 323.02 163.02 322.00 160.00
C 339.97 159.97 358.05 160.04 376.00 160.00 C 393.95 159.96 412.09 160.08 430.00 160.00 C 447.91 159.91 466.18 160.18 484.00 160.00 C 501.82 159.82 519.31 160.41 537.00 160.00 C 554.69 159.59 573.51 160.89 591.00 160.00 C 608.49 159.11 628.06 161.97 645.00 160.00 C 661.94 158.03 679.87 164.66 695.00 159.00
C 695.24 158.69 694.78 157.14 695.00 157.00
C 687.01 153.45 674.80 158.66 666.00 157.00 C 657.20 155.34 647.20 157.72 638.00 157.00 C 628.80 156.28 618.36 157.34 609.00 157.00 C 599.64 156.66 590.43 157.15 581.00 157.00 C 571.57 156.85 561.45 157.07 552.00 157.00 C 542.55 156.93 533.43 157.03 524.00 157.00 C 514.57 156.97 505.48 157.02 496.00 157.00 C 486.52 156.98 476.50 157.01 467.00 157.00 C 457.50 156.99 448.51 157.02 439.00 157.00 C 429.49 156.98 419.53 157.03 410.00 157.00 C 400.47 156.97 391.57 157.07 382.00 157.00 C 372.43 156.93 362.64 157.15 353.00 157.00 C 343.36 156.85 334.82 157.35 325.00 157.00 C 315.18 156.66 323.72 170.12 324.00 170.00 Z"/>
</g>
<g fill="#F6F6F5" fill-opacity="0.06" stroke="None">
<path d="
M 300.00 267.00 
C 296.77 256.98 288.55 243.70 282.31 232.70 C 276.06 221.69 270.67 207.86 263.77 197.23 C 256.87 186.60 252.49 172.30 244.00 163.00
C 243.71 162.68 242.43 162.30 242.00 162.00
C 240.32 163.83 247.83 171.51 248.75 174.25 C 249.66 177.00 253.67 182.13 255.25 185.75 C 256.82 189.38 260.09 192.48 262.03 196.97 C 263.96 201.47 265.39 203.49 268.08 208.92 C 270.76 214.36 270.49 213.32 274.23 220.77 C 277.97 228.22 283.18 236.56 286.70 244.30 C 290.22 252.05 296.04 259.74 300.00 267.00 Z"/>
</g>
<g fill="#F2F2F2" fill-opacity="0.07" stroke="None">
<path d="
M 324.00 170.00 
C 326.65 177.11 335.20 190.76 339.00 195.00
C 334.42 186.60 329.20 177.49 325.00 169.00
C 324.99 169.18 323.91 169.76 324.00 170.00 Z"/>
</g>
<g fill="#4AF5FA" fill-opacity="0.25" stroke="None">
<path d="
M 415.00 230.00 
C 413.31 222.17 410.50 211.90 403.00 206.00
C 413.27 197.69 428.20 204.21 442.07 202.07 C 455.94 199.94 471.43 204.01 486.00 203.00 C 500.57 201.99 517.13 203.47 532.00 203.00 C 546.87 202.53 562.01 203.22 577.00 203.00 C 591.99 202.78 606.90 203.11 622.00 203.00 C 637.10 202.89 652.84 203.08 668.00 203.00
C 666.65 210.65 662.04 214.98 659.23 221.23 C 656.42 227.49 653.05 234.45 649.23 240.23 C 645.41 246.01 643.01 253.25 639.08 259.08 C 635.15 264.91 632.36 271.74 628.70 277.70 C 625.03 283.65 621.57 290.46 618.23 296.23 C 614.89 302.00 609.94 308.75 607.70 314.69 C 605.45 320.64 596.85 328.59 601.00 331.00
C 605.08 323.98 609.85 316.22 614.03 309.03 C 618.20 301.84 622.03 294.33 626.08 287.08 C 630.13 279.83 635.06 272.10 638.70 264.70 C 642.33 257.29 647.57 250.21 651.03 243.03 C 654.48 235.84 659.88 226.85 663.08 220.08 C 666.27 213.30 676.62 200.54 665.00 200.00 C 653.38 199.46 641.55 200.26 630.00 200.00 C 618.45 199.74 607.49 200.14 596.00 200.00 C 584.51 199.86 572.44 200.12 561.00 200.00 C 549.56 199.88 538.33 200.18 527.00 200.00 C 515.67 199.82 503.11 200.35 492.00 200.00 C 480.89 199.65 468.60 200.77 458.00 200.00 C 447.40 199.23 432.64 201.69 423.07 199.93 C 413.51 198.16 397.50 198.56 402.75 208.25 C 407.99 217.95 410.06 220.85 415.00 230.00 Z"/>
</g>
<g fill="#5FF8F2" fill-opacity="0.24" stroke="None">
<path d="
M 139.00 206.00 
C 142.78 209.27 144.81 215.76 149.00 218.00
C 149.48 214.39 138.37 207.83 143.77 204.77 C 149.18 201.71 159.27 204.75 165.00 205.00
C 165.74 204.92 168.30 203.12 169.00 203.00
C 164.63 202.18 156.36 200.38 152.00 201.00 C 147.64 201.63 139.46 201.06 139.00 206.00 Z"/>
</g>
<g fill="#56F4F2" fill-opacity="0.26" stroke="None">
<path d="
M 172.00 203.00 
C 173.24 203.34 173.48 205.73 174.00 206.00
C 185.28 206.90 193.06 203.36 204.00 205.00
C 204.53 203.72 203.03 203.14 203.00 202.00
C 197.69 201.26 192.75 202.71 187.67 203.67 C 182.59 204.63 177.03 202.98 172.00 203.00 Z"/>
</g>
<g fill="#44ECE7" fill-opacity="0.95" stroke="None">
<path d="
M 174.00 206.00 
C 171.08 205.77 168.03 205.40 165.00 205.00
C 159.27 204.75 149.18 201.71 143.77 204.77 C 138.37 207.83 149.48 214.39 149.00 218.00
C 144.81 215.76 142.78 209.27 139.00 206.00
C 138.50 211.37 147.41 216.73 148.69 222.31 C 149.98 227.88 155.07 233.92 157.70 239.30 C 160.33 244.69 164.16 250.38 167.23 255.77 C 170.30 261.17 173.64 267.08 176.25 272.75 C 178.85 278.42 183.25 283.47 185.70 289.31 C 188.14 295.14 192.77 300.08 195.08 305.92 C 197.38 311.77 200.71 317.54 204.23 322.77 C 207.75 328.00 209.84 333.50 213.00 339.00
C 213.94 338.43 214.82 337.85 216.00 338.00
C 227.09 360.20 238.99 380.78 250.00 403.00
C 251.53 405.40 254.17 407.55 254.00 411.00
C 251.78 410.51 252.26 407.43 250.00 407.00
C 262.74 428.90 276.41 449.86 287.25 472.75 C 298.08 495.65 313.07 516.64 324.00 539.00
C 329.47 543.63 333.62 553.06 337.93 561.07 C 342.23 569.08 347.28 577.30 352.00 585.00
C 353.50 587.61 354.55 590.37 356.00 593.00
C 352.94 592.38 351.95 587.76 351.00 585.00
C 350.62 584.93 349.29 584.20 349.00 584.00
C 355.48 595.03 361.99 606.98 368.00 618.00
C 371.47 621.04 377.13 629.15 380.75 635.25 C 384.37 641.35 387.23 650.97 391.92 656.08 C 396.61 661.19 396.31 674.25 402.75 677.25 C 409.20 680.25 412.19 661.73 416.00 659.00
C 418.38 659.39 414.94 661.67 417.00 662.00
C 418.88 658.32 422.14 653.91 423.00 650.00
C 421.59 651.35 420.66 652.95 419.00 654.00
C 419.03 652.24 421.29 647.29 423.00 649.00
C 432.17 640.20 435.95 624.71 443.00 614.00
C 442.09 614.73 441.03 615.51 440.00 616.00
C 439.95 613.60 441.97 611.96 443.00 610.00
C 445.38 610.39 441.94 612.67 444.00 613.00
C 447.73 605.79 451.72 598.92 456.00 592.00
C 455.35 592.43 453.66 592.25 453.00 593.00
C 455.34 588.82 457.97 579.64 463.00 580.00
C 481.80 539.80 505.86 501.49 528.00 463.00
C 527.20 463.40 525.84 462.68 525.00 463.00
C 529.04 456.24 532.48 448.37 536.77 441.77 C 541.06 435.17 544.21 426.52 548.77 419.77 C 553.34 413.02 555.01 402.88 562.00 401.00
C 565.94 393.86 569.66 386.93 574.00 380.00
C 573.14 380.33 571.90 379.77 571.00 380.00
C 564.23 387.77 556.22 395.14 550.75 404.75 C 545.28 414.35 539.24 422.86 532.23 432.23 C 525.22 441.60 515.77 450.89 503.98 446.02 C 492.18 441.16 481.30 443.13 470.00 436.00
C 471.87 433.62 470.18 433.79 469.00 433.00
C 461.13 445.08 451.02 458.10 446.00 472.00
C 447.11 471.20 448.51 470.43 450.00 470.00
C 448.40 472.49 447.75 476.93 444.00 477.00
C 444.05 475.46 448.03 474.07 446.00 473.00
C 439.11 477.50 436.10 488.97 431.77 495.77 C 427.44 502.57 422.16 511.20 419.00 519.00
C 419.87 517.54 421.36 515.32 423.00 515.00
C 421.88 517.08 420.36 523.22 418.00 522.00
C 416.15 525.27 414.53 528.33 413.00 532.00
C 414.69 531.97 415.04 528.73 417.00 527.00
C 416.82 530.39 415.11 534.28 412.00 536.00
C 412.00 535.00 412.00 534.00 412.00 533.00
C 406.61 538.60 402.94 547.76 397.30 537.70 C 391.67 527.63 391.61 525.43 386.32 517.68 C 381.04 509.93 379.99 504.55 375.75 497.25 C 371.52 489.94 368.09 484.92 363.92 478.08 C 359.75 471.23 356.19 464.59 352.31 457.70 C 348.42 450.80 345.58 444.02 341.77 437.23 C 337.96 430.44 334.45 424.00 330.75 417.25 C 327.05 410.49 322.12 405.10 318.92 398.08 C 315.73 391.06 312.20 384.11 308.78 377.22 C 305.35 370.34 301.47 363.18 297.25 356.75 C 293.02 350.32 290.49 343.13 286.31 336.70 C 282.12 330.26 279.08 323.35 275.25 316.75 C 271.42 310.15 266.57 304.70 263.30 297.70 C 260.04 290.69 255.56 283.65 252.32 276.68 C 249.08 269.71 245.79 262.72 241.77 256.23 C 237.75 249.74 234.25 242.86 230.92 236.08 C 227.59 229.29 224.04 222.31 220.30 215.70 C 216.56 209.09 210.76 203.08 203.00 202.00
C 203.03 203.14 204.53 203.72 204.00 205.00
C 193.06 203.36 185.28 206.90 174.00 206.00
M 210.00 329.00 
C 207.52 326.62 205.33 323.16 204.00 320.00
C 207.03 322.09 210.29 325.04 210.00 329.00
M 297.00 489.00 
C 297.48 486.17 295.26 484.19 294.00 482.00
C 297.04 481.76 299.43 487.23 297.00 489.00
M 366.00 612.00 
C 363.54 610.14 362.04 606.82 361.00 604.00
C 363.83 605.69 366.26 608.57 366.00 612.00 Z"/>
</g>
<g fill="#44E6F2" fill-opacity="0.98" stroke="None">
<path d="
M 415.00 230.00 
C 418.88 237.19 422.48 246.62 427.25 253.75 C 432.02 260.89 434.50 270.56 441.00 276.00
C 443.76 278.30 448.63 284.65 450.00 290.00
C 447.78 289.51 448.26 286.43 446.00 286.00
C 447.53 292.62 453.42 299.40 456.74 305.26 C 460.07 311.11 462.68 319.04 467.00 324.00
C 466.54 321.36 470.18 323.66 471.00 324.00
C 477.55 317.67 478.70 309.89 483.75 302.75 C 488.81 295.62 490.81 288.64 496.30 281.30 C 501.80 273.96 516.37 275.22 525.00 276.00 C 533.63 276.78 552.51 271.12 552.00 283.00
C 551.00 283.00 550.00 283.00 549.00 283.00
C 544.01 292.06 541.37 302.66 536.00 312.00
C 535.48 316.64 531.83 325.45 526.75 331.75 C 521.67 338.05 519.07 346.06 514.00 350.00
C 506.27 356.01 504.09 369.26 498.32 377.32 C 492.55 385.39 489.85 397.28 483.77 405.77 C 477.69 414.26 474.46 424.63 469.00 433.00
C 470.18 433.79 471.87 433.62 470.00 436.00
C 481.30 443.13 492.18 441.16 503.98 446.02 C 515.77 450.89 525.22 441.60 532.23 432.23 C 539.24 422.86 545.28 414.35 550.75 404.75 C 556.22 395.14 564.23 387.77 571.00 380.00
C 576.03 374.22 578.07 369.06 582.00 366.00
C 588.41 354.38 594.32 342.48 601.00 331.00
C 596.85 328.59 605.45 320.64 607.70 314.69 C 609.94 308.75 614.89 302.00 618.23 296.23 C 621.57 290.46 625.03 283.65 628.70 277.70 C 632.36 271.74 635.15 264.91 639.08 259.08 C 643.01 253.25 645.41 246.01 649.23 240.23 C 653.05 234.45 656.42 227.49 659.23 221.23 C 662.04 214.98 666.65 210.65 668.00 203.00
C 652.84 203.08 637.10 202.89 622.00 203.00 C 606.90 203.11 591.99 202.78 577.00 203.00 C 562.01 203.22 546.87 202.53 532.00 203.00 C 517.13 203.47 500.57 201.99 486.00 203.00 C 471.43 204.01 455.94 199.94 442.07 202.07 C 428.20 204.21 413.27 197.69 403.00 206.00
C 410.50 211.90 413.31 222.17 415.00 230.00
M 433.00 260.00 
C 431.80 257.06 428.76 254.32 428.00 251.00
C 430.91 252.99 433.44 256.28 433.00 260.00
M 501.00 377.00 
C 500.84 380.92 498.48 384.99 495.00 387.00
C 496.99 383.81 497.99 379.44 501.00 377.00 Z"/>
</g>
<g fill="#46EAE9" fill-opacity="0.46" stroke="None">
<path d="
M 165.00 205.00 
C 168.03 205.40 171.08 205.77 174.00 206.00
C 173.48 205.73 173.24 203.34 172.00 203.00
C 171.07 203.00 169.91 203.17 169.00 203.00
C 168.30 203.12 165.74 204.92 165.00 205.00 Z"/>
</g>
<g fill="#52F1F8" fill-opacity="0.60" stroke="None">
<path d="
M 433.00 260.00 
C 433.44 256.28 430.91 252.99 428.00 251.00
C 428.76 254.32 431.80 257.06 433.00 260.00 Z"/>
</g>
<g fill="#52F2FB" fill-opacity="0.28" stroke="None">
<path d="
M 441.00 276.00 
C 442.65 278.90 441.89 281.67 445.00 284.00
C 445.32 284.19 445.97 284.65 446.00 285.00
C 446.00 285.00 445.89 285.53 446.00 286.00
C 448.26 286.43 447.78 289.51 450.00 290.00
C 448.63 284.65 443.76 278.30 441.00 276.00 Z"/>
</g>
<g fill="#FEFEFE" fill-opacity="0.65" stroke="None">
<path d="
M 312.00 284.00 
C 310.96 281.18 309.46 277.87 307.00 276.00
C 307.95 278.76 308.94 283.38 312.00 284.00 Z"/>
</g>
<g fill="#4EECF3" fill-opacity="0.27" stroke="None">
<path d="
M 467.00 324.00 
C 467.87 326.42 470.54 327.53 473.00 327.00
C 479.78 313.65 489.43 301.03 495.00 287.00
C 496.56 283.06 498.28 281.10 501.00 280.00
C 507.68 277.29 519.73 277.33 527.00 278.00 C 534.27 278.67 548.78 274.17 549.00 283.00
C 550.00 283.00 551.00 283.00 552.00 283.00
C 552.51 271.12 533.63 276.78 525.00 276.00 C 516.37 275.22 501.80 273.96 496.30 281.30 C 490.81 288.64 488.81 295.62 483.75 302.75 C 478.70 309.89 477.55 317.67 471.00 324.00
C 470.18 323.66 466.54 321.36 467.00 324.00 Z"/>
</g>
<g fill="#49EFF1" fill-opacity="0.04" stroke="None">
<path d="
M 495.00 287.00 
C 495.98 285.35 499.24 281.25 501.00 280.00
C 498.28 281.10 496.56 283.06 495.00 287.00 Z"/>
</g>
<g fill="#55AAFF" fill-opacity="0.01" stroke="None">
<path d="
M 446.00 285.00 
C 445.97 284.65 445.32 284.19 445.00 284.00
C 445.27 284.20 445.88 284.74 446.00 285.00 Z"/>
</g>
<g fill="#4EEEF3" fill-opacity="0.29" stroke="None">
<path d="
M 514.00 350.00 
C 519.07 346.06 521.67 338.05 526.75 331.75 C 531.83 325.45 535.48 316.64 536.00 312.00
C 528.53 324.99 521.24 337.27 514.00 350.00 Z"/>
</g>
<g fill="#57F4EE" fill-opacity="0.44" stroke="None">
<path d="
M 210.00 329.00 
C 210.29 325.04 207.03 322.09 204.00 320.00
C 205.33 323.16 207.52 326.62 210.00 329.00 Z"/>
</g>
<g fill="#FEFEFE" fill-opacity="0.60" stroke="None">
<path d="
M 335.00 323.00 
C 331.99 328.03 339.87 328.79 335.00 323.00 Z"/>
</g>
<g fill="#52F2EF" fill-opacity="0.24" stroke="None">
<path d="
M 213.00 339.00 
C 225.43 360.61 237.63 382.92 249.00 405.00
C 249.08 404.51 250.08 404.10 250.00 403.00
C 238.99 380.78 227.09 360.20 216.00 338.00
C 214.82 337.85 213.94 338.43 213.00 339.00 Z"/>
</g>
<g fill="#58F4F8" fill-opacity="0.30" stroke="None">
<path d="
M 571.00 380.00 
C 571.90 379.77 573.14 380.33 574.00 380.00
C 576.74 375.62 579.39 370.73 582.00 366.00
C 578.07 369.06 576.03 374.22 571.00 380.00 Z"/>
</g>
<g fill="#4FF0F9" fill-opacity="0.52" stroke="None">
<path d="
M 501.00 377.00 
C 497.99 379.44 496.99 383.81 495.00 387.00
C 498.48 384.99 500.84 380.92 501.00 377.00 Z"/>
</g>
<g fill="#52F2EF" fill-opacity="0.28" stroke="None">
<path d="
M 528.00 463.00 
C 539.78 442.52 550.62 421.64 562.00 401.00
C 555.01 402.88 553.34 413.02 548.77 419.77 C 544.21 426.52 541.06 435.17 536.77 441.77 C 532.48 448.37 529.04 456.24 525.00 463.00
C 525.84 462.68 527.20 463.40 528.00 463.00 Z"/>
</g>
<g fill="#4BF5EE" fill-opacity="0.42" stroke="None">
<path d="
M 249.00 405.00 
C 249.53 406.04 249.23 406.15 250.00 407.00
C 252.26 407.43 251.78 410.51 254.00 411.00
C 254.17 407.55 251.53 405.40 250.00 403.00
C 250.08 404.10 249.08 404.51 249.00 405.00 Z"/>
</g>
<g fill="#F0F0F0" fill-opacity="0.14" stroke="None">
<path d="
M 398.00 439.00 
C 401.12 442.73 402.69 447.52 407.00 444.00
C 403.11 444.42 400.01 438.76 397.00 436.00
C 396.74 437.23 397.56 438.01 398.00 439.00 Z"/>
</g>
<g fill="#53F0E4" fill-opacity="0.53" stroke="None">
<path d="
M 446.00 472.00 
C 446.00 472.00 445.77 472.64 446.00 473.00
C 448.03 474.07 444.05 475.46 444.00 477.00
C 447.75 476.93 448.40 472.49 450.00 470.00
C 448.51 470.43 447.11 471.20 446.00 472.00 Z"/>
</g>
<g fill="#54F5F1" fill-opacity="0.56" stroke="None">
<path d="
M 297.00 489.00 
C 299.43 487.23 297.04 481.76 294.00 482.00
C 295.26 484.19 297.48 486.17 297.00 489.00 Z"/>
</g>
<g fill="#52F4F2" fill-opacity="0.24" stroke="None">
<path d="
M 419.00 519.00 
C 418.68 519.80 418.36 521.37 418.00 522.00
C 420.36 523.22 421.88 517.08 423.00 515.00
C 421.36 515.32 419.87 517.54 419.00 519.00 Z"/>
</g>
<g fill="#63F0E9" fill-opacity="0.55" stroke="None">
<path d="
M 413.00 532.00 
C 412.89 532.26 412.25 532.74 412.00 533.00
C 412.00 534.00 412.00 535.00 412.00 536.00
C 415.11 534.28 416.82 530.39 417.00 527.00
C 415.04 528.73 414.69 531.97 413.00 532.00 Z"/>
</g>
<g fill="#52F4F2" fill-opacity="0.24" stroke="None">
<path d="
M 324.00 539.00 
C 327.45 546.06 331.20 555.71 336.08 561.92 C 340.95 568.14 342.81 579.67 349.00 584.00
C 349.29 584.20 350.62 584.93 351.00 585.00
C 351.48 585.09 352.00 585.00 352.00 585.00
C 347.28 577.30 342.23 569.08 337.93 561.07 C 333.62 553.06 329.47 543.63 324.00 539.00 Z"/>
</g>
<g fill="#4FF2ED" fill-opacity="0.25" stroke="None">
<path d="
M 456.00 592.00 
C 458.43 588.07 461.03 584.21 463.00 580.00
C 457.97 579.64 455.34 588.82 453.00 593.00
C 453.66 592.25 455.35 592.43 456.00 592.00 Z"/>
</g>
<g fill="#58F7F0" fill-opacity="0.40" stroke="None">
<path d="
M 352.00 585.00 
C 352.00 585.00 351.48 585.09 351.00 585.00
C 351.95 587.76 352.94 592.38 356.00 593.00
C 354.55 590.37 353.50 587.61 352.00 585.00 Z"/>
</g>
<g fill="#55F7F1" fill-opacity="0.47" stroke="None">
<path d="
M 366.00 612.00 
C 366.26 608.57 363.83 605.69 361.00 604.00
C 362.04 606.82 363.54 610.14 366.00 612.00 Z"/>
</g>
<g fill="#4EEBE9" fill-opacity="0.37" stroke="None">
<path d="
M 443.00 614.00 
C 443.29 613.77 443.83 613.33 444.00 613.00
C 441.94 612.67 445.38 610.39 443.00 610.00
C 441.97 611.96 439.95 613.60 440.00 616.00
C 441.03 615.51 442.09 614.73 443.00 614.00 Z"/>
</g>
<g fill="#52F1EC" fill-opacity="0.28" stroke="None">
<path d="
M 368.00 618.00 
C 379.13 638.82 391.45 660.45 402.00 681.00
C 410.29 679.86 413.51 668.84 417.00 662.00
C 414.94 661.67 418.38 659.39 416.00 659.00
C 412.19 661.73 409.20 680.25 402.75 677.25 C 396.31 674.25 396.61 661.19 391.92 656.08 C 387.23 650.97 384.37 641.35 380.75 635.25 C 377.13 629.15 371.47 621.04 368.00 618.00 Z"/>
</g>
<g fill="#52F7F6" fill-opacity="0.37" stroke="None">
<path d="
M 423.00 650.00 
C 423.00 650.00 422.75 649.24 423.00 649.00
C 421.29 647.29 419.03 652.24 419.00 654.00
C 420.66 652.95 421.59 651.35 423.00 650.00 Z"/>
</g>
</svg>